<?xml version="1.0" encoding="UTF-8" standalone="no"?>
<!-- Generator: Adobe Illustrator 24.3.0, SVG Export Plug-In . SVG Version: 6.00 Build 0)  -->

<svg
   xmlns:dc="http://purl.org/dc/elements/1.1/"
   xmlns:cc="http://creativecommons.org/ns#"
   xmlns:rdf="http://www.w3.org/1999/02/22-rdf-syntax-ns#"
   xmlns:svg="http://www.w3.org/2000/svg"
   xmlns="http://www.w3.org/2000/svg"
   xmlns:sodipodi="http://sodipodi.sourceforge.net/DTD/sodipodi-0.dtd"
   xmlns:inkscape="http://www.inkscape.org/namespaces/inkscape"
   version="1.1"
   id="Layer_2"
   x="0px"
   y="0px"
   viewBox="0 0 345.79998 123.3"
   xml:space="preserve"
   sodipodi:docname="lig_sea_level.svg"
   width="345.79999"
   height="123.3"
   inkscape:version="0.92.5 (2060ec1f9f, 2020-04-08)"><metadata
   id="metadata82"><rdf:RDF><cc:Work
       rdf:about=""><dc:format>image/svg+xml</dc:format><dc:type
         rdf:resource="http://purl.org/dc/dcmitype/StillImage" /><dc:title></dc:title></cc:Work></rdf:RDF></metadata><defs
   id="defs80" /><sodipodi:namedview
   pagecolor="#ffffff"
   bordercolor="#666666"
   borderopacity="1"
   objecttolerance="10"
   gridtolerance="10"
   guidetolerance="10"
   inkscape:pageopacity="0"
   inkscape:pageshadow="2"
   inkscape:window-width="1653"
   inkscape:window-height="952"
   id="namedview78"
   showgrid="false"
   inkscape:zoom="1.3135262"
   inkscape:cx="127.9"
   inkscape:cy="61.650002"
   inkscape:window-x="88"
   inkscape:window-y="27"
   inkscape:window-maximized="0"
   inkscape:current-layer="Layer_2" />
<style
   type="text/css"
   id="style2">
	.st0{fill:#4D77CF;}
	.st1{fill:#013243;}
	.st2{font-family:'AgencyFB-Bold';}
	.st3{font-size:40px;}
	.st4{fill:none;stroke:#4DABCF;stroke-width:3;stroke-miterlimit:10;}
</style>
<g
   id="g16"
   transform="translate(0,-3.0517578e-6)">
	<g
   id="g6">
		<path
   class="st0"
   d="m 29.6,62.6 c 1.8,-0.5 3.7,-1 5.2,-2 1.6,-1 3,-2.3 4,-3.8 1,-1.5 1.8,-3.2 2.2,-5 0.2,-0.9 0.4,-1.8 0.6,-2.7 0.2,-0.9 0.3,-1.8 0.5,-2.9 l 0.7,-2.8 1,2.8 c 0.9,2.5 2,4.9 3.3,7.1 0.7,1.1 1.5,2.1 2.4,2.9 0.9,0.8 1.9,1.3 2.8,1.3 1,-0.1 2,-0.5 3,-1.1 1,-0.7 1.8,-1.6 2.6,-2.5 1.6,-1.9 3,-4.2 4.2,-6.4 l 1.6,-2.9 1.1,3 c 0.5,1.3 1,2.6 1.6,3.8 0.6,1.3 1.2,2.5 1.9,3.7 0.7,1.2 1.4,2.4 2.3,3.4 0.9,1 1.9,2 3.3,2.1 v 0 c 0.1,0 0.1,0.1 0.1,0.2 0,0.1 -0.1,0.1 -0.1,0.1 -0.7,0.2 -1.6,0 -2.3,-0.3 -0.7,-0.3 -1.4,-0.7 -2,-1.2 -1.2,-1 -2.2,-2.1 -3.1,-3.3 -0.9,-1.2 -1.7,-2.4 -2.5,-3.7 -0.8,-1.3 -1.4,-2.6 -2,-3.9 l 2.7,0.1 c -1.2,2.6 -2.6,5 -4.6,7.2 -1,1.1 -2,2.1 -3.4,2.9 -1.3,0.8 -2.9,1.4 -4.6,1.4 C 50.3,60 48.8,59 47.8,57.9 46.7,56.8 45.9,55.6 45.2,54.4 43.8,51.9 42.8,49.4 42,46.7 h 1.7 c -0.2,0.8 -0.4,1.8 -0.6,2.7 -0.2,0.9 -0.5,1.9 -0.8,2.8 -0.6,1.9 -1.5,3.7 -2.8,5.2 -1.2,1.6 -2.8,2.8 -4.5,3.8 l -1.3,0.6 -1.4,0.5 c -0.5,0.2 -0.9,0.3 -1.4,0.3 l -1.4,0.3 c -0.1,0 -0.2,0 -0.2,-0.1 0.2,-0.1 0.3,-0.2 0.3,-0.2 z"
   id="path4"
   inkscape:connector-curvature="0"
   style="fill:#4d77cf" />
	</g>
	<g
   id="g10">
		<path
   class="st0"
   d="m 29.1,69.1 c 1.3,0 2.6,-0.6 3.8,-1.2 1.2,-0.6 2.3,-1.4 3.4,-2.2 1.1,-0.8 2.1,-1.7 3,-2.7 1,-0.9 1.9,-1.9 2.8,-2.9 l 0.8,-0.9 0.6,1.1 c 1,1.8 2.4,3.6 4.1,4.8 0.8,0.6 1.8,1.1 2.7,1.4 0.5,0.2 1,0.3 1.5,0.4 0.5,0 1,0.1 1.5,0.1 1,0 1.9,-0.2 2.8,-0.5 0.9,-0.4 1.7,-0.9 2.4,-1.6 1.5,-1.3 2.7,-3.1 3.7,-4.8 L 63.8,57 65,60.1 c 0.4,1 0.9,2.1 1.5,3.1 0.6,1 1.3,2 2.1,2.9 0.8,0.9 1.7,1.6 2.7,2.3 1,0.6 2.2,1 3.4,1.3 v 0 c 0.1,0 0.1,0.1 0.1,0.2 0,0.1 -0.1,0.1 -0.1,0.1 -1.3,0.2 -2.7,0.1 -4,-0.3 -1.3,-0.4 -2.5,-1.1 -3.6,-2 -1.1,-0.9 -2,-1.9 -2.8,-2.9 -0.8,-1.1 -1.5,-2.2 -2.1,-3.5 l 2.8,0.1 c -0.5,1.2 -1.2,2.2 -1.9,3.2 -0.8,1 -1.6,1.9 -2.6,2.7 -1,0.8 -2.2,1.4 -3.4,1.8 -1.2,0.4 -2.6,0.6 -3.8,0.5 -0.6,0 -1.3,-0.2 -1.9,-0.3 -0.6,-0.2 -1.2,-0.3 -1.8,-0.6 -1.2,-0.5 -2.2,-1.1 -3.2,-1.9 -1.9,-1.6 -3.3,-3.5 -4.3,-5.7 l 1.3,0.2 c -1,1 -2,1.9 -3.1,2.8 -1.1,0.9 -2.2,1.7 -3.3,2.5 -1.2,0.8 -2.4,1.5 -3.6,2 -1.3,0.5 -2.7,1 -4.1,0.9 -0.1,0 -0.1,-0.1 -0.1,-0.2 -0.3,-0.1 -0.2,-0.2 -0.1,-0.2 z"
   id="path8"
   inkscape:connector-curvature="0"
   style="fill:#4d77cf" />
	</g>
	<g
   id="g14">
		<path
   class="st0"
   d="m 25.5,76.8 c 2.1,-1.2 4.2,-2.2 6.5,-3 2.3,-0.8 4.5,-1.6 7.1,-1.8 1.4,-0.1 2.7,0.2 3.9,0.5 1.2,0.3 2.3,0.8 3.4,1.2 2.1,0.9 4.3,1.7 6.2,1.7 2,-0.1 4.2,-1.1 6.4,-1.8 1.1,-0.4 2.3,-0.8 3.5,-1 0.6,-0.1 1.3,-0.2 2,-0.1 0.3,0 0.7,0.1 1,0.2 0.3,0.1 0.6,0.2 0.8,0.3 2.2,0.7 4.5,1.2 6.7,1.8 l 3.4,0.8 1.7,0.4 0.9,0.2 0.4,0.1 0.2,0.1 h 0.1 c 0.1,0 0.2,0.1 0.2,0.2 0,0.1 -0.1,0.2 -0.2,0.2 -0.1,0 -0.2,-0.1 -0.2,-0.2 0,0 0,0.1 0,0.1 0,0 -0.1,0 -0.1,0 H 79.2 L 78.8,76.6 77.9,76.5 76.2,76.3 73,75.6 c -2.3,-0.4 -4.6,-0.7 -7,-1.3 -0.3,-0.1 -0.6,-0.2 -0.9,-0.2 -0.2,0 -0.5,-0.1 -0.7,-0.1 -0.5,0 -1,0.1 -1.5,0.2 -1,0.2 -2.1,0.6 -3.2,1.1 -1.1,0.4 -2.1,0.9 -3.3,1.4 -1.1,0.4 -2.3,0.9 -3.7,1 -1.4,0.1 -2.7,0 -3.9,-0.3 C 47.6,77.1 46.4,76.8 45.3,76.5 43.1,75.8 40.9,75 39,75 c -1,0 -2.1,0.1 -3.3,0.3 -1.1,0.1 -2.3,0.4 -3.4,0.6 -2.3,0.4 -4.6,0.9 -6.9,1.3 -0.1,0 -0.2,0 -0.2,-0.1 0.2,-0.2 0.3,-0.3 0.3,-0.3 z"
   id="path12"
   inkscape:connector-curvature="0"
   style="fill:#4d77cf" />
	</g>
</g>
<g
   id="Layer_1_1_"
   transform="matrix(1,0,0,-1,0,-3.0517578e-6)">
	<g
   id="g20">
		<text
   transform="matrix(1,0,0,-1,97.4662,-75.2968)"
   class="st1 st2 st3"
   id="text18"
   style="font-size:40px;font-family:AgencyFB-Bold;fill:#013243">lig sea level</text>

	</g>
	<g
   id="g74">
		<g
   id="g24">
			<path
   class="st4"
   d="m 80,-78.8 c 0,-5.5 -4.5,-10 -10,-10 H 35.6 c -5.5,0 -10,4.5 -10,10 v 34.4 c 0,5.5 4.5,10 10,10 H 70 c 5.5,0 10,-4.5 10,-10 z"
   id="path22"
   inkscape:connector-curvature="0"
   style="fill:none;stroke:#4dabcf;stroke-width:3;stroke-miterlimit:10" />
		</g>
		<line
   class="st4"
   x1="52.799999"
   y1="-34.400002"
   x2="52.799999"
   y2="-28.6"
   id="line26"
   style="fill:none;stroke:#4dabcf;stroke-width:3;stroke-miterlimit:10" />
		<circle
   class="st4"
   cx="52.799999"
   cy="-25.1"
   r="3.5999999"
   id="circle28"
   style="fill:none;stroke:#4dabcf;stroke-width:3;stroke-miterlimit:10" />
		<line
   class="st4"
   x1="65.599998"
   y1="-34.400002"
   x2="65.599998"
   y2="-28.6"
   id="line30"
   style="fill:none;stroke:#4dabcf;stroke-width:3;stroke-miterlimit:10" />
		<circle
   class="st4"
   cx="65.599998"
   cy="-25.1"
   r="3.5999999"
   id="circle32"
   style="fill:none;stroke:#4dabcf;stroke-width:3;stroke-miterlimit:10" />
		<line
   class="st4"
   x1="40.099998"
   y1="-34.400002"
   x2="40.099998"
   y2="-28.6"
   id="line34"
   style="fill:none;stroke:#4dabcf;stroke-width:3;stroke-miterlimit:10" />
		<circle
   class="st4"
   cx="40.099998"
   cy="-25.1"
   r="3.5999999"
   id="circle36"
   style="fill:none;stroke:#4dabcf;stroke-width:3;stroke-miterlimit:10" />
		<line
   class="st4"
   x1="52.799999"
   y1="-88.900002"
   x2="52.799999"
   y2="-94.800003"
   id="line38"
   style="fill:none;stroke:#4dabcf;stroke-width:3;stroke-miterlimit:10" />
		<circle
   class="st4"
   cx="52.799999"
   cy="-98.199997"
   r="3.5999999"
   id="circle40"
   style="fill:none;stroke:#4dabcf;stroke-width:3;stroke-miterlimit:10" />
		<line
   class="st4"
   x1="65.599998"
   y1="-88.900002"
   x2="65.599998"
   y2="-94.800003"
   id="line42"
   style="fill:none;stroke:#4dabcf;stroke-width:3;stroke-miterlimit:10" />
		<circle
   class="st4"
   cx="65.599998"
   cy="-98.199997"
   r="3.5999999"
   id="circle44"
   style="fill:none;stroke:#4dabcf;stroke-width:3;stroke-miterlimit:10" />
		<line
   class="st4"
   x1="40.099998"
   y1="-88.900002"
   x2="40.099998"
   y2="-94.800003"
   id="line46"
   style="fill:none;stroke:#4dabcf;stroke-width:3;stroke-miterlimit:10" />
		<circle
   class="st4"
   cx="40.099998"
   cy="-98.199997"
   r="3.5999999"
   id="circle48"
   style="fill:none;stroke:#4dabcf;stroke-width:3;stroke-miterlimit:10" />
		<line
   class="st4"
   x1="80.099998"
   y1="-61.700001"
   x2="85.900002"
   y2="-61.700001"
   id="line50"
   style="fill:none;stroke:#4dabcf;stroke-width:3;stroke-miterlimit:10" />
		<circle
   class="st4"
   cx="89.400002"
   cy="-61.700001"
   r="3.5999999"
   id="circle52"
   style="fill:none;stroke:#4dabcf;stroke-width:3;stroke-miterlimit:10" />
		<line
   class="st4"
   x1="80.099998"
   y1="-48.900002"
   x2="85.900002"
   y2="-48.900002"
   id="line54"
   style="fill:none;stroke:#4dabcf;stroke-width:3;stroke-miterlimit:10" />
		<circle
   class="st4"
   cx="89.400002"
   cy="-48.900002"
   r="3.5999999"
   id="circle56"
   style="fill:none;stroke:#4dabcf;stroke-width:3;stroke-miterlimit:10" />
		<line
   class="st4"
   x1="80.099998"
   y1="-74.400002"
   x2="85.900002"
   y2="-74.400002"
   id="line58"
   style="fill:none;stroke:#4dabcf;stroke-width:3;stroke-miterlimit:10" />
		<circle
   class="st4"
   cx="89.400002"
   cy="-74.400002"
   r="3.5999999"
   id="circle60"
   style="fill:none;stroke:#4dabcf;stroke-width:3;stroke-miterlimit:10" />
		<line
   class="st4"
   x1="25.6"
   y1="-61.700001"
   x2="19.700001"
   y2="-61.700001"
   id="line62"
   style="fill:none;stroke:#4dabcf;stroke-width:3;stroke-miterlimit:10" />
		<circle
   class="st4"
   cx="16.299999"
   cy="-61.700001"
   r="3.5999999"
   id="circle64"
   style="fill:none;stroke:#4dabcf;stroke-width:3;stroke-miterlimit:10" />
		<line
   class="st4"
   x1="25.6"
   y1="-48.900002"
   x2="19.700001"
   y2="-48.900002"
   id="line66"
   style="fill:none;stroke:#4dabcf;stroke-width:3;stroke-miterlimit:10" />
		<circle
   class="st4"
   cx="16.299999"
   cy="-48.900002"
   r="3.5999999"
   id="circle68"
   style="fill:none;stroke:#4dabcf;stroke-width:3;stroke-miterlimit:10" />
		<line
   class="st4"
   x1="25.6"
   y1="-74.400002"
   x2="19.700001"
   y2="-74.400002"
   id="line70"
   style="fill:none;stroke:#4dabcf;stroke-width:3;stroke-miterlimit:10" />
		<circle
   class="st4"
   cx="16.299999"
   cy="-74.400002"
   r="3.5999999"
   id="circle72"
   style="fill:none;stroke:#4dabcf;stroke-width:3;stroke-miterlimit:10" />
	</g>
</g>
</svg>