<?xml version="1.0" encoding="UTF-8" standalone="no"?>
<!DOCTYPE svg PUBLIC "-//W3C//DTD SVG 1.1//EN"
 "http://www.w3.org/Graphics/SVG/1.1/DTD/svg11.dtd">
<!-- Generated by graphviz version 2.43.0 (0)
 -->
<!-- Title: %3 Pages: 1 -->
<svg width="1208pt" height="555pt"
 viewBox="0.00 0.00 1208.00 555.00" xmlns="http://www.w3.org/2000/svg" xmlns:xlink="http://www.w3.org/1999/xlink">
<g id="graph0" class="graph" transform="scale(1 1) rotate(0) translate(4 551)">
<title>%3</title>
<polygon fill="white" stroke="transparent" points="-4,4 -4,-551 1204,-551 1204,4 -4,4"/>
<!-- T&#45;II deglacial
rate -->
<g id="node1" class="node">
<title>T&#45;II deglacial
rate</title>
<path fill="#cfdde2" stroke="#cfdde2" d="M476.07,-92.12C476.07,-92.12 439.07,-92.12 439.07,-92.12 433.07,-92.12 427.07,-86.12 427.07,-80.12 427.07,-80.12 427.07,-60.12 427.07,-60.12 427.07,-54.12 433.07,-48.12 439.07,-48.12 439.07,-48.12 476.07,-48.12 476.07,-48.12 482.07,-48.12 488.07,-54.12 488.07,-60.12 488.07,-60.12 488.07,-80.12 488.07,-80.12 488.07,-86.12 482.07,-92.12 476.07,-92.12"/>
<text text-anchor="middle" x="457.57" y="-81.72" font-family="Times,serif" font-size="8.00">T&#45;II deglacial</text>
<text text-anchor="middle" x="457.57" y="-72.72" font-family="Times,serif" font-size="8.00">rate</text>
<text text-anchor="middle" x="457.57" y="-63.72" font-family="Times,serif" font-size="8.00">~</text>
<text text-anchor="middle" x="457.57" y="-54.72" font-family="Times,serif" font-size="8.00">Uniform</text>
</g>
<!-- Region A
LIG GIA -->
<g id="node2" class="node">
<title>Region A
LIG GIA</title>
<path fill="#edbfce" stroke="#edbfce" d="M489,-252.61C489,-252.61 452,-252.61 452,-252.61 446,-252.61 440,-246.61 440,-240.61 440,-240.61 440,-220.61 440,-220.61 440,-214.61 446,-208.61 452,-208.61 452,-208.61 489,-208.61 489,-208.61 495,-208.61 501,-214.61 501,-220.61 501,-220.61 501,-240.61 501,-240.61 501,-246.61 495,-252.61 489,-252.61"/>
<text text-anchor="middle" x="470.5" y="-242.21" font-family="Times,serif" font-size="8.00">Region A</text>
<text text-anchor="middle" x="470.5" y="-233.21" font-family="Times,serif" font-size="8.00">LIG GIA</text>
<text text-anchor="middle" x="470.5" y="-224.21" font-family="Times,serif" font-size="8.00">~</text>
<text text-anchor="middle" x="470.5" y="-215.21" font-family="Times,serif" font-size="8.00">Deterministic</text>
</g>
<!-- T&#45;II deglacial
rate&#45;&gt;Region A
LIG GIA -->
<g id="edge1" class="edge">
<title>T&#45;II deglacial
rate&#45;&gt;Region A
LIG GIA</title>
<path fill="none" stroke="#808080" d="M459.37,-92.44C461.7,-121.42 465.78,-172 468.3,-203.26"/>
<polygon fill="#808080" stroke="#808080" points="466.57,-203.64 468.72,-208.49 470.06,-203.36 466.57,-203.64"/>
</g>
<!-- Region A
lig elevation
predictions -->
<g id="node19" class="node">
<title>Region A
lig elevation
predictions</title>
<path fill="#edbfce" stroke="#edbfce" d="M303.28,-259.49C303.28,-259.49 266.28,-259.49 266.28,-259.49 260.28,-259.49 254.28,-253.49 254.28,-247.49 254.28,-247.49 254.28,-218.49 254.28,-218.49 254.28,-212.49 260.28,-206.49 266.28,-206.49 266.28,-206.49 303.28,-206.49 303.28,-206.49 309.28,-206.49 315.28,-212.49 315.28,-218.49 315.28,-218.49 315.28,-247.49 315.28,-247.49 315.28,-253.49 309.28,-259.49 303.28,-259.49"/>
<text text-anchor="middle" x="284.78" y="-249.09" font-family="Times,serif" font-size="8.00">Region A</text>
<text text-anchor="middle" x="284.78" y="-240.09" font-family="Times,serif" font-size="8.00">lig elevation</text>
<text text-anchor="middle" x="284.78" y="-231.09" font-family="Times,serif" font-size="8.00">predictions</text>
<text text-anchor="middle" x="284.78" y="-222.09" font-family="Times,serif" font-size="8.00">~</text>
<text text-anchor="middle" x="284.78" y="-213.09" font-family="Times,serif" font-size="8.00">Deterministic</text>
</g>
<!-- Region A
LIG GIA&#45;&gt;Region A
lig elevation
predictions -->
<g id="edge26" class="edge">
<title>Region A
LIG GIA&#45;&gt;Region A
lig elevation
predictions</title>
<path fill="none" stroke="#808080" d="M439.83,-231C407.17,-231.42 355.5,-232.08 320.9,-232.53"/>
<polygon fill="#808080" stroke="#808080" points="320.47,-230.78 315.49,-232.6 320.51,-234.28 320.47,-230.78"/>
</g>
<!-- Region A
uplift or
subsidence rate -->
<g id="node3" class="node">
<title>Region A
uplift or
subsidence rate</title>
<path fill="#cfdde2" stroke="#cfdde2" d="M574.39,-99.61C574.39,-99.61 532.39,-99.61 532.39,-99.61 526.39,-99.61 520.39,-93.61 520.39,-87.61 520.39,-87.61 520.39,-58.61 520.39,-58.61 520.39,-52.61 526.39,-46.61 532.39,-46.61 532.39,-46.61 574.39,-46.61 574.39,-46.61 580.39,-46.61 586.39,-52.61 586.39,-58.61 586.39,-58.61 586.39,-87.61 586.39,-87.61 586.39,-93.61 580.39,-99.61 574.39,-99.61"/>
<text text-anchor="middle" x="553.39" y="-89.21" font-family="Times,serif" font-size="8.00">Region A</text>
<text text-anchor="middle" x="553.39" y="-80.21" font-family="Times,serif" font-size="8.00">uplift or</text>
<text text-anchor="middle" x="553.39" y="-71.21" font-family="Times,serif" font-size="8.00">subsidence rate</text>
<text text-anchor="middle" x="553.39" y="-62.21" font-family="Times,serif" font-size="8.00">~</text>
<text text-anchor="middle" x="553.39" y="-53.21" font-family="Times,serif" font-size="8.00">Normal</text>
</g>
<!-- Region A
LIG uplift
or subsidence -->
<g id="node4" class="node">
<title>Region A
LIG uplift
or subsidence</title>
<path fill="#edbfce" stroke="#edbfce" d="M416.22,-194.19C416.22,-194.19 379.22,-194.19 379.22,-194.19 373.22,-194.19 367.22,-188.19 367.22,-182.19 367.22,-182.19 367.22,-153.19 367.22,-153.19 367.22,-147.19 373.22,-141.19 379.22,-141.19 379.22,-141.19 416.22,-141.19 416.22,-141.19 422.22,-141.19 428.22,-147.19 428.22,-153.19 428.22,-153.19 428.22,-182.19 428.22,-182.19 428.22,-188.19 422.22,-194.19 416.22,-194.19"/>
<text text-anchor="middle" x="397.72" y="-183.79" font-family="Times,serif" font-size="8.00">Region A</text>
<text text-anchor="middle" x="397.72" y="-174.79" font-family="Times,serif" font-size="8.00">LIG uplift</text>
<text text-anchor="middle" x="397.72" y="-165.79" font-family="Times,serif" font-size="8.00">or subsidence</text>
<text text-anchor="middle" x="397.72" y="-156.79" font-family="Times,serif" font-size="8.00">~</text>
<text text-anchor="middle" x="397.72" y="-147.79" font-family="Times,serif" font-size="8.00">Deterministic</text>
</g>
<!-- Region A
uplift or
subsidence rate&#45;&gt;Region A
LIG uplift
or subsidence -->
<g id="edge2" class="edge">
<title>Region A
uplift or
subsidence rate&#45;&gt;Region A
LIG uplift
or subsidence</title>
<path fill="none" stroke="#808080" d="M520.38,-93.17C494.65,-108.8 459,-130.46 432.76,-146.4"/>
<polygon fill="#808080" stroke="#808080" points="431.67,-145.02 428.31,-149.11 433.49,-148.01 431.67,-145.02"/>
</g>
<!-- Region A
holocene
uplift or
subsidence -->
<g id="node5" class="node">
<title>Region A
holocene
uplift or
subsidence</title>
<path fill="#edbfce" stroke="#edbfce" d="M740.61,-106.49C740.61,-106.49 703.61,-106.49 703.61,-106.49 697.61,-106.49 691.61,-100.49 691.61,-94.49 691.61,-94.49 691.61,-56.49 691.61,-56.49 691.61,-50.49 697.61,-44.49 703.61,-44.49 703.61,-44.49 740.61,-44.49 740.61,-44.49 746.61,-44.49 752.61,-50.49 752.61,-56.49 752.61,-56.49 752.61,-94.49 752.61,-94.49 752.61,-100.49 746.61,-106.49 740.61,-106.49"/>
<text text-anchor="middle" x="722.11" y="-96.09" font-family="Times,serif" font-size="8.00">Region A</text>
<text text-anchor="middle" x="722.11" y="-87.09" font-family="Times,serif" font-size="8.00">holocene</text>
<text text-anchor="middle" x="722.11" y="-78.09" font-family="Times,serif" font-size="8.00">uplift or</text>
<text text-anchor="middle" x="722.11" y="-69.09" font-family="Times,serif" font-size="8.00">subsidence</text>
<text text-anchor="middle" x="722.11" y="-60.09" font-family="Times,serif" font-size="8.00">~</text>
<text text-anchor="middle" x="722.11" y="-51.09" font-family="Times,serif" font-size="8.00">Deterministic</text>
</g>
<!-- Region A
uplift or
subsidence rate&#45;&gt;Region A
holocene
uplift or
subsidence -->
<g id="edge3" class="edge">
<title>Region A
uplift or
subsidence rate&#45;&gt;Region A
holocene
uplift or
subsidence</title>
<path fill="none" stroke="#808080" d="M586.73,-73.58C615.38,-73.98 656.63,-74.56 686.05,-74.98"/>
<polygon fill="#808080" stroke="#808080" points="686.37,-76.73 691.4,-75.05 686.42,-73.23 686.37,-76.73"/>
</g>
<!-- Region A
LIG uplift
or subsidence&#45;&gt;Region A
lig elevation
predictions -->
<g id="edge22" class="edge">
<title>Region A
LIG uplift
or subsidence&#45;&gt;Region A
lig elevation
predictions</title>
<path fill="none" stroke="#808080" d="M367.16,-185.36C352.59,-193.78 335.09,-203.9 319.98,-212.64"/>
<polygon fill="#808080" stroke="#808080" points="318.82,-211.29 315.37,-215.31 320.57,-214.32 318.82,-211.29"/>
</g>
<!-- Region A
holocene
elevation
predictions -->
<g id="node14" class="node">
<title>Region A
holocene
elevation
predictions</title>
<path fill="#edbfce" stroke="#edbfce" d="M903.27,-159.95C903.27,-159.95 866.27,-159.95 866.27,-159.95 860.27,-159.95 854.27,-153.95 854.27,-147.95 854.27,-147.95 854.27,-109.95 854.27,-109.95 854.27,-103.95 860.27,-97.95 866.27,-97.95 866.27,-97.95 903.27,-97.95 903.27,-97.95 909.27,-97.95 915.27,-103.95 915.27,-109.95 915.27,-109.95 915.27,-147.95 915.27,-147.95 915.27,-153.95 909.27,-159.95 903.27,-159.95"/>
<text text-anchor="middle" x="884.77" y="-149.55" font-family="Times,serif" font-size="8.00">Region A</text>
<text text-anchor="middle" x="884.77" y="-140.55" font-family="Times,serif" font-size="8.00">holocene</text>
<text text-anchor="middle" x="884.77" y="-131.55" font-family="Times,serif" font-size="8.00">elevation</text>
<text text-anchor="middle" x="884.77" y="-122.55" font-family="Times,serif" font-size="8.00">predictions</text>
<text text-anchor="middle" x="884.77" y="-113.55" font-family="Times,serif" font-size="8.00">~</text>
<text text-anchor="middle" x="884.77" y="-104.55" font-family="Times,serif" font-size="8.00">Deterministic</text>
</g>
<!-- Region A
holocene
uplift or
subsidence&#45;&gt;Region A
holocene
elevation
predictions -->
<g id="edge24" class="edge">
<title>Region A
holocene
uplift or
subsidence&#45;&gt;Region A
holocene
elevation
predictions</title>
<path fill="none" stroke="#808080" d="M752.7,-85.54C780.1,-94.55 820.3,-107.76 849.14,-117.24"/>
<polygon fill="#808080" stroke="#808080" points="848.73,-118.95 854.03,-118.85 849.83,-115.62 848.73,-118.95"/>
</g>
<!-- Region A GP
cov extra
white noise -->
<g id="node6" class="node">
<title>Region A GP
cov extra
white noise</title>
<path fill="#cfdde2" stroke="#cfdde2" d="M53.62,-453.11C53.62,-453.11 19.62,-453.11 19.62,-453.11 13.62,-453.11 7.62,-447.11 7.62,-441.11 7.62,-441.11 7.62,-412.11 7.62,-412.11 7.62,-406.11 13.62,-400.11 19.62,-400.11 19.62,-400.11 53.62,-400.11 53.62,-400.11 59.62,-400.11 65.62,-406.11 65.62,-412.11 65.62,-412.11 65.62,-441.11 65.62,-441.11 65.62,-447.11 59.62,-453.11 53.62,-453.11"/>
<text text-anchor="middle" x="36.62" y="-442.71" font-family="Times,serif" font-size="8.00">Region A GP</text>
<text text-anchor="middle" x="36.62" y="-433.71" font-family="Times,serif" font-size="8.00">cov extra</text>
<text text-anchor="middle" x="36.62" y="-424.71" font-family="Times,serif" font-size="8.00">white noise</text>
<text text-anchor="middle" x="36.62" y="-415.71" font-family="Times,serif" font-size="8.00">~</text>
<text text-anchor="middle" x="36.62" y="-406.71" font-family="Times,serif" font-size="8.00">HalfCauchy</text>
</g>
<!-- Region A
LIG GIA
corrected
sea level -->
<g id="node7" class="node">
<title>Region A
LIG GIA
corrected
sea level</title>
<path fill="#cfdde2" stroke="#cfdde2" d="M190.21,-402.49C190.21,-402.49 160.21,-402.49 160.21,-402.49 154.21,-402.49 148.21,-396.49 148.21,-390.49 148.21,-390.49 148.21,-352.49 148.21,-352.49 148.21,-346.49 154.21,-340.49 160.21,-340.49 160.21,-340.49 190.21,-340.49 190.21,-340.49 196.21,-340.49 202.21,-346.49 202.21,-352.49 202.21,-352.49 202.21,-390.49 202.21,-390.49 202.21,-396.49 196.21,-402.49 190.21,-402.49"/>
<text text-anchor="middle" x="175.21" y="-392.09" font-family="Times,serif" font-size="8.00">Region A</text>
<text text-anchor="middle" x="175.21" y="-383.09" font-family="Times,serif" font-size="8.00">LIG GIA</text>
<text text-anchor="middle" x="175.21" y="-374.09" font-family="Times,serif" font-size="8.00">corrected</text>
<text text-anchor="middle" x="175.21" y="-365.09" font-family="Times,serif" font-size="8.00">sea level</text>
<text text-anchor="middle" x="175.21" y="-356.09" font-family="Times,serif" font-size="8.00">~</text>
<text text-anchor="middle" x="175.21" y="-347.09" font-family="Times,serif" font-size="8.00">MvNormal</text>
</g>
<!-- Region A GP
cov extra
white noise&#45;&gt;Region A
LIG GIA
corrected
sea level -->
<g id="edge4" class="edge">
<title>Region A GP
cov extra
white noise&#45;&gt;Region A
LIG GIA
corrected
sea level</title>
<path fill="none" stroke="#808080" d="M65.67,-415.06C88.35,-406.04 119.82,-393.52 143.22,-384.22"/>
<polygon fill="#808080" stroke="#808080" points="144.08,-385.76 148.08,-382.28 142.79,-382.5 144.08,-385.76"/>
</g>
<!-- Region A
LIG GIA
corrected
sea level&#45;&gt;Region A
lig elevation
predictions -->
<g id="edge29" class="edge">
<title>Region A
LIG GIA
corrected
sea level&#45;&gt;Region A
lig elevation
predictions</title>
<path fill="none" stroke="#808080" d="M199.8,-340.41C217.86,-317.58 242.28,-286.71 260.31,-263.92"/>
<polygon fill="#808080" stroke="#808080" points="261.87,-264.77 263.6,-259.77 259.12,-262.6 261.87,-264.77"/>
</g>
<!-- Region A
lithosphere -->
<g id="node8" class="node">
<title>Region A
lithosphere</title>
<path fill="#cfdde2" stroke="#cfdde2" d="M615.11,-185.45C615.11,-185.45 585.11,-185.45 585.11,-185.45 579.11,-185.45 573.11,-179.45 573.11,-173.45 573.11,-173.45 573.11,-153.45 573.11,-153.45 573.11,-147.45 579.11,-141.45 585.11,-141.45 585.11,-141.45 615.11,-141.45 615.11,-141.45 621.11,-141.45 627.11,-147.45 627.11,-153.45 627.11,-153.45 627.11,-173.45 627.11,-173.45 627.11,-179.45 621.11,-185.45 615.11,-185.45"/>
<text text-anchor="middle" x="600.11" y="-175.05" font-family="Times,serif" font-size="8.00">Region A</text>
<text text-anchor="middle" x="600.11" y="-166.05" font-family="Times,serif" font-size="8.00">lithosphere</text>
<text text-anchor="middle" x="600.11" y="-157.05" font-family="Times,serif" font-size="8.00">~</text>
<text text-anchor="middle" x="600.11" y="-148.05" font-family="Times,serif" font-size="8.00">Uniform</text>
</g>
<!-- Region A
lithosphere&#45;&gt;Region A
LIG GIA -->
<g id="edge5" class="edge">
<title>Region A
lithosphere&#45;&gt;Region A
LIG GIA</title>
<path fill="none" stroke="#808080" d="M572.94,-177.53C553.48,-187.61 527.09,-201.29 505.97,-212.23"/>
<polygon fill="#808080" stroke="#808080" points="504.9,-210.81 501.27,-214.67 506.51,-213.92 504.9,-210.81"/>
</g>
<!-- Region A
holocene
GIA -->
<g id="node9" class="node">
<title>Region A
holocene
GIA</title>
<path fill="#edbfce" stroke="#edbfce" d="M753.67,-214.18C753.67,-214.18 716.67,-214.18 716.67,-214.18 710.67,-214.18 704.67,-208.18 704.67,-202.18 704.67,-202.18 704.67,-173.18 704.67,-173.18 704.67,-167.18 710.67,-161.18 716.67,-161.18 716.67,-161.18 753.67,-161.18 753.67,-161.18 759.67,-161.18 765.67,-167.18 765.67,-173.18 765.67,-173.18 765.67,-202.18 765.67,-202.18 765.67,-208.18 759.67,-214.18 753.67,-214.18"/>
<text text-anchor="middle" x="735.17" y="-203.78" font-family="Times,serif" font-size="8.00">Region A</text>
<text text-anchor="middle" x="735.17" y="-194.78" font-family="Times,serif" font-size="8.00">holocene</text>
<text text-anchor="middle" x="735.17" y="-185.78" font-family="Times,serif" font-size="8.00">GIA</text>
<text text-anchor="middle" x="735.17" y="-176.78" font-family="Times,serif" font-size="8.00">~</text>
<text text-anchor="middle" x="735.17" y="-167.78" font-family="Times,serif" font-size="8.00">Deterministic</text>
</g>
<!-- Region A
lithosphere&#45;&gt;Region A
holocene
GIA -->
<g id="edge6" class="edge">
<title>Region A
lithosphere&#45;&gt;Region A
holocene
GIA</title>
<path fill="none" stroke="#808080" d="M627.12,-168.29C647.88,-172.02 676.73,-177.2 699.41,-181.26"/>
<polygon fill="#808080" stroke="#808080" points="699.21,-183.01 704.44,-182.17 699.83,-179.56 699.21,-183.01"/>
</g>
<!-- Region A
holocene
GIA&#45;&gt;Region A
holocene
elevation
predictions -->
<g id="edge28" class="edge">
<title>Region A
holocene
GIA&#45;&gt;Region A
holocene
elevation
predictions</title>
<path fill="none" stroke="#808080" d="M765.81,-175.66C790.01,-166.15 823.82,-152.88 849.21,-142.91"/>
<polygon fill="#808080" stroke="#808080" points="850.16,-144.42 854.17,-140.96 848.88,-141.16 850.16,-144.42"/>
</g>
<!-- Region A
holocene sample
ages -->
<g id="node10" class="node">
<title>Region A
holocene sample
ages</title>
<path fill="#cfdde2" stroke="#cfdde2" d="M837.18,-81.89C837.18,-81.89 788.18,-81.89 788.18,-81.89 782.18,-81.89 776.18,-75.89 776.18,-69.89 776.18,-69.89 776.18,-40.89 776.18,-40.89 776.18,-34.89 782.18,-28.89 788.18,-28.89 788.18,-28.89 837.18,-28.89 837.18,-28.89 843.18,-28.89 849.18,-34.89 849.18,-40.89 849.18,-40.89 849.18,-69.89 849.18,-69.89 849.18,-75.89 843.18,-81.89 837.18,-81.89"/>
<text text-anchor="middle" x="812.68" y="-71.49" font-family="Times,serif" font-size="8.00">Region A</text>
<text text-anchor="middle" x="812.68" y="-62.49" font-family="Times,serif" font-size="8.00">holocene sample</text>
<text text-anchor="middle" x="812.68" y="-53.49" font-family="Times,serif" font-size="8.00">ages</text>
<text text-anchor="middle" x="812.68" y="-44.49" font-family="Times,serif" font-size="8.00">~</text>
<text text-anchor="middle" x="812.68" y="-35.49" font-family="Times,serif" font-size="8.00">TruncatedNormal</text>
</g>
<!-- Region A
holocene sample
ages&#45;&gt;Region A
holocene
uplift or
subsidence -->
<g id="edge7" class="edge">
<title>Region A
holocene sample
ages&#45;&gt;Region A
holocene
uplift or
subsidence</title>
<path fill="none" stroke="#808080" d="M776.1,-63.5C770.04,-64.85 763.76,-66.24 757.73,-67.58"/>
<polygon fill="#808080" stroke="#808080" points="757.23,-65.9 752.72,-68.69 757.98,-69.32 757.23,-65.9"/>
</g>
<!-- Region A
holocene sample
ages&#45;&gt;Region A
holocene
GIA -->
<g id="edge8" class="edge">
<title>Region A
holocene sample
ages&#45;&gt;Region A
holocene
GIA</title>
<path fill="none" stroke="#808080" d="M797,-82.16C784.39,-103.68 766.66,-133.94 753.42,-156.54"/>
<polygon fill="#808080" stroke="#808080" points="751.85,-155.75 750.84,-160.95 754.87,-157.52 751.85,-155.75"/>
</g>
<!-- Region A
upper mantle
viscosity -->
<g id="node11" class="node">
<title>Region A
upper mantle
viscosity</title>
<path fill="#cfdde2" stroke="#cfdde2" d="M629.67,-320.46C629.67,-320.46 594.67,-320.46 594.67,-320.46 588.67,-320.46 582.67,-314.46 582.67,-308.46 582.67,-308.46 582.67,-279.46 582.67,-279.46 582.67,-273.46 588.67,-267.46 594.67,-267.46 594.67,-267.46 629.67,-267.46 629.67,-267.46 635.67,-267.46 641.67,-273.46 641.67,-279.46 641.67,-279.46 641.67,-308.46 641.67,-308.46 641.67,-314.46 635.67,-320.46 629.67,-320.46"/>
<text text-anchor="middle" x="612.17" y="-310.06" font-family="Times,serif" font-size="8.00">Region A</text>
<text text-anchor="middle" x="612.17" y="-301.06" font-family="Times,serif" font-size="8.00">upper mantle</text>
<text text-anchor="middle" x="612.17" y="-292.06" font-family="Times,serif" font-size="8.00">viscosity</text>
<text text-anchor="middle" x="612.17" y="-283.06" font-family="Times,serif" font-size="8.00">~</text>
<text text-anchor="middle" x="612.17" y="-274.06" font-family="Times,serif" font-size="8.00">Uniform</text>
</g>
<!-- Region A
upper mantle
viscosity&#45;&gt;Region A
LIG GIA -->
<g id="edge9" class="edge">
<title>Region A
upper mantle
viscosity&#45;&gt;Region A
LIG GIA</title>
<path fill="none" stroke="#808080" d="M582.47,-280.68C560.11,-270.68 529.37,-256.94 505.76,-246.38"/>
<polygon fill="#808080" stroke="#808080" points="506.42,-244.75 501.14,-244.31 504.99,-247.95 506.42,-244.75"/>
</g>
<!-- Region A
upper mantle
viscosity&#45;&gt;Region A
holocene
GIA -->
<g id="edge10" class="edge">
<title>Region A
upper mantle
viscosity&#45;&gt;Region A
holocene
GIA</title>
<path fill="none" stroke="#808080" d="M641.95,-268.23C659.53,-253.04 681.88,-233.73 700.28,-217.83"/>
<polygon fill="#808080" stroke="#808080" points="701.75,-218.88 704.39,-214.28 699.46,-216.23 701.75,-218.88"/>
</g>
<!-- ice
history -->
<g id="node12" class="node">
<title>ice
history</title>
<path fill="#cfdde2" stroke="#cfdde2" d="M394.19,-117.04C394.19,-117.04 364.19,-117.04 364.19,-117.04 358.19,-117.04 352.19,-111.04 352.19,-105.04 352.19,-105.04 352.19,-85.04 352.19,-85.04 352.19,-79.04 358.19,-73.04 364.19,-73.04 364.19,-73.04 394.19,-73.04 394.19,-73.04 400.19,-73.04 406.19,-79.04 406.19,-85.04 406.19,-85.04 406.19,-105.04 406.19,-105.04 406.19,-111.04 400.19,-117.04 394.19,-117.04"/>
<text text-anchor="middle" x="379.19" y="-106.64" font-family="Times,serif" font-size="8.00">ice</text>
<text text-anchor="middle" x="379.19" y="-97.64" font-family="Times,serif" font-size="8.00">history</text>
<text text-anchor="middle" x="379.19" y="-88.64" font-family="Times,serif" font-size="8.00">~</text>
<text text-anchor="middle" x="379.19" y="-79.64" font-family="Times,serif" font-size="8.00">Uniform</text>
</g>
<!-- ice
history&#45;&gt;Region A
LIG GIA -->
<g id="edge11" class="edge">
<title>ice
history&#45;&gt;Region A
LIG GIA</title>
<path fill="none" stroke="#808080" d="M394.06,-117.13C410.11,-140.96 435.67,-178.9 452.75,-204.27"/>
<polygon fill="#808080" stroke="#808080" points="451.39,-205.37 455.63,-208.54 454.29,-203.41 451.39,-205.37"/>
</g>
<!-- Region A
holocene sample
indicative
ranges -->
<g id="node13" class="node">
<title>Region A
holocene sample
indicative
ranges</title>
<path fill="#cfdde2" stroke="#cfdde2" d="M1030.83,-61.87C1030.83,-61.87 984.83,-61.87 984.83,-61.87 978.83,-61.87 972.83,-55.87 972.83,-49.87 972.83,-49.87 972.83,-11.87 972.83,-11.87 972.83,-5.87 978.83,0.13 984.83,0.13 984.83,0.13 1030.83,0.13 1030.83,0.13 1036.83,0.13 1042.83,-5.87 1042.83,-11.87 1042.83,-11.87 1042.83,-49.87 1042.83,-49.87 1042.83,-55.87 1036.83,-61.87 1030.83,-61.87"/>
<text text-anchor="middle" x="1007.83" y="-51.47" font-family="Times,serif" font-size="8.00">Region A</text>
<text text-anchor="middle" x="1007.83" y="-42.47" font-family="Times,serif" font-size="8.00">holocene sample</text>
<text text-anchor="middle" x="1007.83" y="-33.47" font-family="Times,serif" font-size="8.00">indicative</text>
<text text-anchor="middle" x="1007.83" y="-24.47" font-family="Times,serif" font-size="8.00">ranges</text>
<text text-anchor="middle" x="1007.83" y="-15.47" font-family="Times,serif" font-size="8.00">~</text>
<text text-anchor="middle" x="1007.83" y="-6.47" font-family="Times,serif" font-size="8.00">Wald</text>
</g>
<!-- Region A
holocene sample
indicative
ranges&#45;&gt;Region A
holocene
elevation
predictions -->
<g id="edge12" class="edge">
<title>Region A
holocene sample
indicative
ranges&#45;&gt;Region A
holocene
elevation
predictions</title>
<path fill="none" stroke="#808080" d="M972.57,-58.98C955.94,-72.23 936.15,-88 919.58,-101.2"/>
<polygon fill="#808080" stroke="#808080" points="918.26,-100.02 915.44,-104.5 920.44,-102.76 918.26,-100.02"/>
</g>
<!-- Region A
holocene
likelihood -->
<g id="node16" class="node">
<title>Region A
holocene
likelihood</title>
<path fill="#b8b4ca" stroke="#b8b4ca" d="M1053.53,-184.92C1053.53,-184.92 1023.53,-184.92 1023.53,-184.92 1017.53,-184.92 1011.53,-178.92 1011.53,-172.92 1011.53,-172.92 1011.53,-143.92 1011.53,-143.92 1011.53,-137.92 1017.53,-131.92 1023.53,-131.92 1023.53,-131.92 1053.53,-131.92 1053.53,-131.92 1059.53,-131.92 1065.53,-137.92 1065.53,-143.92 1065.53,-143.92 1065.53,-172.92 1065.53,-172.92 1065.53,-178.92 1059.53,-184.92 1053.53,-184.92"/>
<text text-anchor="middle" x="1038.53" y="-174.52" font-family="Times,serif" font-size="8.00">Region A</text>
<text text-anchor="middle" x="1038.53" y="-165.52" font-family="Times,serif" font-size="8.00">holocene</text>
<text text-anchor="middle" x="1038.53" y="-156.52" font-family="Times,serif" font-size="8.00">likelihood</text>
<text text-anchor="middle" x="1038.53" y="-147.52" font-family="Times,serif" font-size="8.00">~</text>
<text text-anchor="middle" x="1038.53" y="-138.52" font-family="Times,serif" font-size="8.00">Normal</text>
</g>
<!-- Region A
holocene
elevation
predictions&#45;&gt;Region A
holocene
likelihood -->
<g id="edge21" class="edge">
<title>Region A
holocene
elevation
predictions&#45;&gt;Region A
holocene
likelihood</title>
<path fill="none" stroke="#808080" d="M915.51,-134.84C941.8,-139.88 979.52,-147.11 1006.24,-152.23"/>
<polygon fill="#808080" stroke="#808080" points="1006.2,-154 1011.44,-153.22 1006.86,-150.56 1006.2,-154"/>
</g>
<!-- Region A
unexplained
noise -->
<g id="node15" class="node">
<title>Region A
unexplained
noise</title>
<path fill="#cfdde2" stroke="#cfdde2" d="M1188.37,-191.69C1188.37,-191.69 1156.37,-191.69 1156.37,-191.69 1150.37,-191.69 1144.37,-185.69 1144.37,-179.69 1144.37,-179.69 1144.37,-150.69 1144.37,-150.69 1144.37,-144.69 1150.37,-138.69 1156.37,-138.69 1156.37,-138.69 1188.37,-138.69 1188.37,-138.69 1194.37,-138.69 1200.37,-144.69 1200.37,-150.69 1200.37,-150.69 1200.37,-179.69 1200.37,-179.69 1200.37,-185.69 1194.37,-191.69 1188.37,-191.69"/>
<text text-anchor="middle" x="1172.37" y="-181.29" font-family="Times,serif" font-size="8.00">Region A</text>
<text text-anchor="middle" x="1172.37" y="-172.29" font-family="Times,serif" font-size="8.00">unexplained</text>
<text text-anchor="middle" x="1172.37" y="-163.29" font-family="Times,serif" font-size="8.00">noise</text>
<text text-anchor="middle" x="1172.37" y="-154.29" font-family="Times,serif" font-size="8.00">~</text>
<text text-anchor="middle" x="1172.37" y="-145.29" font-family="Times,serif" font-size="8.00">HalfCauchy</text>
</g>
<!-- Region A
unexplained
noise&#45;&gt;Region A
holocene
likelihood -->
<g id="edge13" class="edge">
<title>Region A
unexplained
noise&#45;&gt;Region A
holocene
likelihood</title>
<path fill="none" stroke="#808080" d="M1144.31,-163.77C1122.88,-162.69 1093.31,-161.19 1070.88,-160.05"/>
<polygon fill="#808080" stroke="#808080" points="1070.72,-158.29 1065.63,-159.79 1070.54,-161.79 1070.72,-158.29"/>
</g>
<!-- Region A GP
mean -->
<g id="node17" class="node">
<title>Region A GP
mean</title>
<path fill="#cfdde2" stroke="#cfdde2" d="M46.12,-360.88C46.12,-360.88 12.12,-360.88 12.12,-360.88 6.12,-360.88 0.12,-354.88 0.12,-348.88 0.12,-348.88 0.12,-328.88 0.12,-328.88 0.12,-322.88 6.12,-316.88 12.12,-316.88 12.12,-316.88 46.12,-316.88 46.12,-316.88 52.12,-316.88 58.12,-322.88 58.12,-328.88 58.12,-328.88 58.12,-348.88 58.12,-348.88 58.12,-354.88 52.12,-360.88 46.12,-360.88"/>
<text text-anchor="middle" x="29.12" y="-350.48" font-family="Times,serif" font-size="8.00">Region A GP</text>
<text text-anchor="middle" x="29.12" y="-341.48" font-family="Times,serif" font-size="8.00">mean</text>
<text text-anchor="middle" x="29.12" y="-332.48" font-family="Times,serif" font-size="8.00">~</text>
<text text-anchor="middle" x="29.12" y="-323.48" font-family="Times,serif" font-size="8.00">Normal</text>
</g>
<!-- Region A GP
mean&#45;&gt;Region A
LIG GIA
corrected
sea level -->
<g id="edge14" class="edge">
<title>Region A GP
mean&#45;&gt;Region A
LIG GIA
corrected
sea level</title>
<path fill="none" stroke="#808080" d="M58.33,-345.4C82.84,-350.87 117.81,-358.68 143.1,-364.32"/>
<polygon fill="#808080" stroke="#808080" points="142.76,-366.04 148.02,-365.42 143.53,-362.63 142.76,-366.04"/>
</g>
<!-- Region A
LIG sample
indicative
ranges -->
<g id="node18" class="node">
<title>Region A
LIG sample
indicative
ranges</title>
<path fill="#cfdde2" stroke="#cfdde2" d="M145.98,-223.85C145.98,-223.85 113.98,-223.85 113.98,-223.85 107.98,-223.85 101.98,-217.85 101.98,-211.85 101.98,-211.85 101.98,-173.85 101.98,-173.85 101.98,-167.85 107.98,-161.85 113.98,-161.85 113.98,-161.85 145.98,-161.85 145.98,-161.85 151.98,-161.85 157.98,-167.85 157.98,-173.85 157.98,-173.85 157.98,-211.85 157.98,-211.85 157.98,-217.85 151.98,-223.85 145.98,-223.85"/>
<text text-anchor="middle" x="129.98" y="-213.45" font-family="Times,serif" font-size="8.00">Region A</text>
<text text-anchor="middle" x="129.98" y="-204.45" font-family="Times,serif" font-size="8.00">LIG sample</text>
<text text-anchor="middle" x="129.98" y="-195.45" font-family="Times,serif" font-size="8.00">indicative</text>
<text text-anchor="middle" x="129.98" y="-186.45" font-family="Times,serif" font-size="8.00">ranges</text>
<text text-anchor="middle" x="129.98" y="-177.45" font-family="Times,serif" font-size="8.00">~</text>
<text text-anchor="middle" x="129.98" y="-168.45" font-family="Times,serif" font-size="8.00">Normal</text>
</g>
<!-- Region A
LIG sample
indicative
ranges&#45;&gt;Region A
lig elevation
predictions -->
<g id="edge15" class="edge">
<title>Region A
LIG sample
indicative
ranges&#45;&gt;Region A
lig elevation
predictions</title>
<path fill="none" stroke="#808080" d="M158.01,-200.12C183.52,-206.73 221.31,-216.53 248.99,-223.71"/>
<polygon fill="#808080" stroke="#808080" points="248.76,-225.46 254.04,-225.02 249.64,-222.07 248.76,-225.46"/>
</g>
<!-- Region A
LIG likelihood -->
<g id="node22" class="node">
<title>Region A
LIG likelihood</title>
<path fill="#b8b4ca" stroke="#b8b4ca" d="M200.68,-132.1C200.68,-132.1 159.68,-132.1 159.68,-132.1 153.68,-132.1 147.68,-126.1 147.68,-120.1 147.68,-120.1 147.68,-100.1 147.68,-100.1 147.68,-94.1 153.68,-88.1 159.68,-88.1 159.68,-88.1 200.68,-88.1 200.68,-88.1 206.68,-88.1 212.68,-94.1 212.68,-100.1 212.68,-100.1 212.68,-120.1 212.68,-120.1 212.68,-126.1 206.68,-132.1 200.68,-132.1"/>
<text text-anchor="middle" x="180.18" y="-121.7" font-family="Times,serif" font-size="8.00">Region A</text>
<text text-anchor="middle" x="180.18" y="-112.7" font-family="Times,serif" font-size="8.00">LIG likelihood</text>
<text text-anchor="middle" x="180.18" y="-103.7" font-family="Times,serif" font-size="8.00">~</text>
<text text-anchor="middle" x="180.18" y="-94.7" font-family="Times,serif" font-size="8.00">Normal</text>
</g>
<!-- Region A
lig elevation
predictions&#45;&gt;Region A
LIG likelihood -->
<g id="edge23" class="edge">
<title>Region A
lig elevation
predictions&#45;&gt;Region A
LIG likelihood</title>
<path fill="none" stroke="#808080" d="M262.08,-206.32C244.4,-185.54 219.97,-156.85 202.41,-136.21"/>
<polygon fill="#808080" stroke="#808080" points="203.56,-134.87 198.99,-132.2 200.9,-137.14 203.56,-134.87"/>
</g>
<!-- Region A
lower mantle
viscosity -->
<g id="node20" class="node">
<title>Region A
lower mantle
viscosity</title>
<path fill="#cfdde2" stroke="#cfdde2" d="M625.68,-258.22C625.68,-258.22 590.68,-258.22 590.68,-258.22 584.68,-258.22 578.68,-252.22 578.68,-246.22 578.68,-246.22 578.68,-217.22 578.68,-217.22 578.68,-211.22 584.68,-205.22 590.68,-205.22 590.68,-205.22 625.68,-205.22 625.68,-205.22 631.68,-205.22 637.68,-211.22 637.68,-217.22 637.68,-217.22 637.68,-246.22 637.68,-246.22 637.68,-252.22 631.68,-258.22 625.68,-258.22"/>
<text text-anchor="middle" x="608.18" y="-247.82" font-family="Times,serif" font-size="8.00">Region A</text>
<text text-anchor="middle" x="608.18" y="-238.82" font-family="Times,serif" font-size="8.00">lower mantle</text>
<text text-anchor="middle" x="608.18" y="-229.82" font-family="Times,serif" font-size="8.00">viscosity</text>
<text text-anchor="middle" x="608.18" y="-220.82" font-family="Times,serif" font-size="8.00">~</text>
<text text-anchor="middle" x="608.18" y="-211.82" font-family="Times,serif" font-size="8.00">Uniform</text>
</g>
<!-- Region A
lower mantle
viscosity&#45;&gt;Region A
LIG GIA -->
<g id="edge16" class="edge">
<title>Region A
lower mantle
viscosity&#45;&gt;Region A
LIG GIA</title>
<path fill="none" stroke="#808080" d="M578.64,-231.48C557.58,-231.31 529.12,-231.08 506.69,-230.9"/>
<polygon fill="#808080" stroke="#808080" points="506.43,-229.15 501.42,-230.86 506.4,-232.65 506.43,-229.15"/>
</g>
<!-- Region A
lower mantle
viscosity&#45;&gt;Region A
holocene
GIA -->
<g id="edge17" class="edge">
<title>Region A
lower mantle
viscosity&#45;&gt;Region A
holocene
GIA</title>
<path fill="none" stroke="#808080" d="M637.95,-221.39C656.34,-215.02 680.03,-206.8 699.43,-200.08"/>
<polygon fill="#808080" stroke="#808080" points="700.11,-201.69 704.26,-198.4 698.96,-198.39 700.11,-201.69"/>
</g>
<!-- Region A
LIG sample
ages -->
<g id="node21" class="node">
<title>Region A
LIG sample
ages</title>
<path fill="#cfdde2" stroke="#cfdde2" d="M359.44,-333.85C359.44,-333.85 310.44,-333.85 310.44,-333.85 304.44,-333.85 298.44,-327.85 298.44,-321.85 298.44,-321.85 298.44,-292.85 298.44,-292.85 298.44,-286.85 304.44,-280.85 310.44,-280.85 310.44,-280.85 359.44,-280.85 359.44,-280.85 365.44,-280.85 371.44,-286.85 371.44,-292.85 371.44,-292.85 371.44,-321.85 371.44,-321.85 371.44,-327.85 365.44,-333.85 359.44,-333.85"/>
<text text-anchor="middle" x="334.94" y="-323.45" font-family="Times,serif" font-size="8.00">Region A</text>
<text text-anchor="middle" x="334.94" y="-314.45" font-family="Times,serif" font-size="8.00">LIG sample</text>
<text text-anchor="middle" x="334.94" y="-305.45" font-family="Times,serif" font-size="8.00">ages</text>
<text text-anchor="middle" x="334.94" y="-296.45" font-family="Times,serif" font-size="8.00">~</text>
<text text-anchor="middle" x="334.94" y="-287.45" font-family="Times,serif" font-size="8.00">TruncatedNormal</text>
</g>
<!-- Region A
LIG sample
ages&#45;&gt;Region A
LIG GIA -->
<g id="edge19" class="edge">
<title>Region A
LIG sample
ages&#45;&gt;Region A
LIG GIA</title>
<path fill="none" stroke="#808080" d="M371.62,-286.58C391.45,-275.36 415.81,-261.57 435.39,-250.48"/>
<polygon fill="#808080" stroke="#808080" points="436.26,-252 439.75,-248.02 434.53,-248.96 436.26,-252"/>
</g>
<!-- Region A
LIG sample
ages&#45;&gt;Region A
LIG uplift
or subsidence -->
<g id="edge18" class="edge">
<title>Region A
LIG sample
ages&#45;&gt;Region A
LIG uplift
or subsidence</title>
<path fill="none" stroke="#808080" d="M346.89,-280.75C357.3,-257.6 372.4,-224.01 383.44,-199.45"/>
<polygon fill="#808080" stroke="#808080" points="385.14,-199.95 385.59,-194.67 381.95,-198.51 385.14,-199.95"/>
</g>
<!-- Region A
LIG sample
ages&#45;&gt;Region A
LIG GIA
corrected
sea level -->
<g id="edge20" class="edge">
<title>Region A
LIG sample
ages&#45;&gt;Region A
LIG GIA
corrected
sea level</title>
<path fill="none" stroke="#808080" d="M298.29,-322.06C270.72,-333.14 233.31,-348.16 207,-358.73"/>
<polygon fill="#808080" stroke="#808080" points="206.21,-357.16 202.22,-360.65 207.51,-360.41 206.21,-357.16"/>
</g>
<!-- Region A GP
cov lengthscale -->
<g id="node23" class="node">
<title>Region A GP
cov lengthscale</title>
<path fill="#cfdde2" stroke="#cfdde2" d="M204.42,-546.81C204.42,-546.81 162.42,-546.81 162.42,-546.81 156.42,-546.81 150.42,-540.81 150.42,-534.81 150.42,-534.81 150.42,-514.81 150.42,-514.81 150.42,-508.81 156.42,-502.81 162.42,-502.81 162.42,-502.81 204.42,-502.81 204.42,-502.81 210.42,-502.81 216.42,-508.81 216.42,-514.81 216.42,-514.81 216.42,-534.81 216.42,-534.81 216.42,-540.81 210.42,-546.81 204.42,-546.81"/>
<text text-anchor="middle" x="183.42" y="-536.41" font-family="Times,serif" font-size="8.00">Region A GP</text>
<text text-anchor="middle" x="183.42" y="-527.41" font-family="Times,serif" font-size="8.00">cov lengthscale</text>
<text text-anchor="middle" x="183.42" y="-518.41" font-family="Times,serif" font-size="8.00">~</text>
<text text-anchor="middle" x="183.42" y="-509.41" font-family="Times,serif" font-size="8.00">Wald</text>
</g>
<!-- Region A GP
cov lengthscale&#45;&gt;Region A
LIG GIA
corrected
sea level -->
<g id="edge25" class="edge">
<title>Region A GP
cov lengthscale&#45;&gt;Region A
LIG GIA
corrected
sea level</title>
<path fill="none" stroke="#808080" d="M182.23,-502.52C180.9,-477.73 178.74,-437.33 177.16,-407.93"/>
<polygon fill="#808080" stroke="#808080" points="178.89,-407.47 176.88,-402.57 175.4,-407.66 178.89,-407.47"/>
</g>
<!-- Region A GP
cov variance -->
<g id="node24" class="node">
<title>Region A GP
cov variance</title>
<path fill="#cfdde2" stroke="#cfdde2" d="M114.38,-515.12C114.38,-515.12 80.38,-515.12 80.38,-515.12 74.38,-515.12 68.38,-509.12 68.38,-503.12 68.38,-503.12 68.38,-483.12 68.38,-483.12 68.38,-477.12 74.38,-471.12 80.38,-471.12 80.38,-471.12 114.38,-471.12 114.38,-471.12 120.38,-471.12 126.38,-477.12 126.38,-483.12 126.38,-483.12 126.38,-503.12 126.38,-503.12 126.38,-509.12 120.38,-515.12 114.38,-515.12"/>
<text text-anchor="middle" x="97.38" y="-504.72" font-family="Times,serif" font-size="8.00">Region A GP</text>
<text text-anchor="middle" x="97.38" y="-495.72" font-family="Times,serif" font-size="8.00">cov variance</text>
<text text-anchor="middle" x="97.38" y="-486.72" font-family="Times,serif" font-size="8.00">~</text>
<text text-anchor="middle" x="97.38" y="-477.72" font-family="Times,serif" font-size="8.00">Normal</text>
</g>
<!-- Region A GP
cov variance&#45;&gt;Region A
LIG GIA
corrected
sea level -->
<g id="edge27" class="edge">
<title>Region A GP
cov variance&#45;&gt;Region A
LIG GIA
corrected
sea level</title>
<path fill="none" stroke="#808080" d="M111.47,-471.1C122.93,-453.2 139.3,-427.62 152.58,-406.86"/>
<polygon fill="#808080" stroke="#808080" points="154.15,-407.66 155.37,-402.5 151.2,-405.77 154.15,-407.66"/>
</g>
</g>
</svg>
