<?xml version="1.0" encoding="UTF-8" standalone="no"?>
<!DOCTYPE svg PUBLIC "-//W3C//DTD SVG 1.1//EN"
 "http://www.w3.org/Graphics/SVG/1.1/DTD/svg11.dtd">
<!-- Generated by graphviz version 2.43.0 (0)
 -->
<!-- Title: %3 Pages: 1 -->
<svg width="468pt" height="343pt"
 viewBox="0.00 0.00 468.00 343.00" xmlns="http://www.w3.org/2000/svg" xmlns:xlink="http://www.w3.org/1999/xlink">
<g id="graph0" class="graph" transform="scale(1 1) rotate(0) translate(4 339)">
<title>%3</title>
<polygon fill="white" stroke="transparent" points="-4,4 -4,-339 464,-339 464,4 -4,4"/>
<!-- Region A
uplift or
subsidence rate -->
<g id="node1" class="node">
<title>Region A
uplift or
subsidence rate</title>
<path fill="#cfdde2" stroke="#cfdde2" d="M53.55,-170.48C53.55,-170.48 11.55,-170.48 11.55,-170.48 5.55,-170.48 -0.45,-164.48 -0.45,-158.48 -0.45,-158.48 -0.45,-129.48 -0.45,-129.48 -0.45,-123.48 5.55,-117.48 11.55,-117.48 11.55,-117.48 53.55,-117.48 53.55,-117.48 59.55,-117.48 65.55,-123.48 65.55,-129.48 65.55,-129.48 65.55,-158.48 65.55,-158.48 65.55,-164.48 59.55,-170.48 53.55,-170.48"/>
<text text-anchor="middle" x="32.55" y="-160.08" font-family="Times,serif" font-size="8.00">Region A</text>
<text text-anchor="middle" x="32.55" y="-151.08" font-family="Times,serif" font-size="8.00">uplift or</text>
<text text-anchor="middle" x="32.55" y="-142.08" font-family="Times,serif" font-size="8.00">subsidence rate</text>
<text text-anchor="middle" x="32.55" y="-133.08" font-family="Times,serif" font-size="8.00">~</text>
<text text-anchor="middle" x="32.55" y="-124.08" font-family="Times,serif" font-size="8.00">Normal</text>
</g>
<!-- Region A
holocene
uplift or
subsidence -->
<g id="node9" class="node">
<title>Region A
holocene
uplift or
subsidence</title>
<path fill="#edbfce" stroke="#edbfce" d="M164.74,-168.26C164.74,-168.26 127.74,-168.26 127.74,-168.26 121.74,-168.26 115.74,-162.26 115.74,-156.26 115.74,-156.26 115.74,-118.26 115.74,-118.26 115.74,-112.26 121.74,-106.26 127.74,-106.26 127.74,-106.26 164.74,-106.26 164.74,-106.26 170.74,-106.26 176.74,-112.26 176.74,-118.26 176.74,-118.26 176.74,-156.26 176.74,-156.26 176.74,-162.26 170.74,-168.26 164.74,-168.26"/>
<text text-anchor="middle" x="146.24" y="-157.86" font-family="Times,serif" font-size="8.00">Region A</text>
<text text-anchor="middle" x="146.24" y="-148.86" font-family="Times,serif" font-size="8.00">holocene</text>
<text text-anchor="middle" x="146.24" y="-139.86" font-family="Times,serif" font-size="8.00">uplift or</text>
<text text-anchor="middle" x="146.24" y="-130.86" font-family="Times,serif" font-size="8.00">subsidence</text>
<text text-anchor="middle" x="146.24" y="-121.86" font-family="Times,serif" font-size="8.00">~</text>
<text text-anchor="middle" x="146.24" y="-112.86" font-family="Times,serif" font-size="8.00">Deterministic</text>
</g>
<!-- Region A
uplift or
subsidence rate&#45;&gt;Region A
holocene
uplift or
subsidence -->
<g id="edge6" class="edge">
<title>Region A
uplift or
subsidence rate&#45;&gt;Region A
holocene
uplift or
subsidence</title>
<path fill="none" stroke="#808080" d="M65.74,-142.02C79.75,-141.19 96.09,-140.22 110.38,-139.38"/>
<polygon fill="#808080" stroke="#808080" points="110.65,-141.11 115.54,-139.07 110.45,-137.62 110.65,-141.11"/>
</g>
<!-- Region A
lithosphere -->
<g id="node2" class="node">
<title>Region A
lithosphere</title>
<path fill="#cfdde2" stroke="#cfdde2" d="M344.84,-182.98C344.84,-182.98 314.84,-182.98 314.84,-182.98 308.84,-182.98 302.84,-176.98 302.84,-170.98 302.84,-170.98 302.84,-150.98 302.84,-150.98 302.84,-144.98 308.84,-138.98 314.84,-138.98 314.84,-138.98 344.84,-138.98 344.84,-138.98 350.84,-138.98 356.84,-144.98 356.84,-150.98 356.84,-150.98 356.84,-170.98 356.84,-170.98 356.84,-176.98 350.84,-182.98 344.84,-182.98"/>
<text text-anchor="middle" x="329.84" y="-172.58" font-family="Times,serif" font-size="8.00">Region A</text>
<text text-anchor="middle" x="329.84" y="-163.58" font-family="Times,serif" font-size="8.00">lithosphere</text>
<text text-anchor="middle" x="329.84" y="-154.58" font-family="Times,serif" font-size="8.00">~</text>
<text text-anchor="middle" x="329.84" y="-145.58" font-family="Times,serif" font-size="8.00">Uniform</text>
</g>
<!-- Region A
holocene
GIA -->
<g id="node11" class="node">
<title>Region A
holocene
GIA</title>
<path fill="#edbfce" stroke="#edbfce" d="M239.03,-141.22C239.03,-141.22 202.03,-141.22 202.03,-141.22 196.03,-141.22 190.03,-135.22 190.03,-129.22 190.03,-129.22 190.03,-100.22 190.03,-100.22 190.03,-94.22 196.03,-88.22 202.03,-88.22 202.03,-88.22 239.03,-88.22 239.03,-88.22 245.03,-88.22 251.03,-94.22 251.03,-100.22 251.03,-100.22 251.03,-129.22 251.03,-129.22 251.03,-135.22 245.03,-141.22 239.03,-141.22"/>
<text text-anchor="middle" x="220.53" y="-130.82" font-family="Times,serif" font-size="8.00">Region A</text>
<text text-anchor="middle" x="220.53" y="-121.82" font-family="Times,serif" font-size="8.00">holocene</text>
<text text-anchor="middle" x="220.53" y="-112.82" font-family="Times,serif" font-size="8.00">GIA</text>
<text text-anchor="middle" x="220.53" y="-103.82" font-family="Times,serif" font-size="8.00">~</text>
<text text-anchor="middle" x="220.53" y="-94.82" font-family="Times,serif" font-size="8.00">Deterministic</text>
</g>
<!-- Region A
lithosphere&#45;&gt;Region A
holocene
GIA -->
<g id="edge2" class="edge">
<title>Region A
lithosphere&#45;&gt;Region A
holocene
GIA</title>
<path fill="none" stroke="#808080" d="M302.82,-149.55C288.61,-143.53 271.02,-136.09 255.75,-129.63"/>
<polygon fill="#808080" stroke="#808080" points="256.38,-128 251.1,-127.66 255.02,-131.22 256.38,-128"/>
</g>
<!-- Region A
holocene sample
ages -->
<g id="node3" class="node">
<title>Region A
holocene sample
ages</title>
<path fill="#cfdde2" stroke="#cfdde2" d="M242.18,-69.77C242.18,-69.77 193.18,-69.77 193.18,-69.77 187.18,-69.77 181.18,-63.77 181.18,-57.77 181.18,-57.77 181.18,-28.77 181.18,-28.77 181.18,-22.77 187.18,-16.77 193.18,-16.77 193.18,-16.77 242.18,-16.77 242.18,-16.77 248.18,-16.77 254.18,-22.77 254.18,-28.77 254.18,-28.77 254.18,-57.77 254.18,-57.77 254.18,-63.77 248.18,-69.77 242.18,-69.77"/>
<text text-anchor="middle" x="217.68" y="-59.37" font-family="Times,serif" font-size="8.00">Region A</text>
<text text-anchor="middle" x="217.68" y="-50.37" font-family="Times,serif" font-size="8.00">holocene sample</text>
<text text-anchor="middle" x="217.68" y="-41.37" font-family="Times,serif" font-size="8.00">ages</text>
<text text-anchor="middle" x="217.68" y="-32.37" font-family="Times,serif" font-size="8.00">~</text>
<text text-anchor="middle" x="217.68" y="-23.37" font-family="Times,serif" font-size="8.00">TruncatedNormal</text>
</g>
<!-- Region A
holocene sample
ages&#45;&gt;Region A
holocene
uplift or
subsidence -->
<g id="edge5" class="edge">
<title>Region A
holocene sample
ages&#45;&gt;Region A
holocene
uplift or
subsidence</title>
<path fill="none" stroke="#808080" d="M197.4,-69.95C189.83,-79.92 181.1,-91.39 173.03,-102.01"/>
<polygon fill="#808080" stroke="#808080" points="171.49,-101.15 169.86,-106.19 174.28,-103.27 171.49,-101.15"/>
</g>
<!-- Region A
holocene sample
ages&#45;&gt;Region A
holocene
GIA -->
<g id="edge1" class="edge">
<title>Region A
holocene sample
ages&#45;&gt;Region A
holocene
GIA</title>
<path fill="none" stroke="#808080" d="M218.74,-69.88C218.91,-74.1 219.09,-78.5 219.26,-82.83"/>
<polygon fill="#808080" stroke="#808080" points="217.51,-82.93 219.46,-87.86 221.01,-82.79 217.51,-82.93"/>
</g>
<!-- Region A
upper mantle
viscosity -->
<g id="node4" class="node">
<title>Region A
upper mantle
viscosity</title>
<path fill="#cfdde2" stroke="#cfdde2" d="M174.65,-237.29C174.65,-237.29 139.65,-237.29 139.65,-237.29 133.65,-237.29 127.65,-231.29 127.65,-225.29 127.65,-225.29 127.65,-196.29 127.65,-196.29 127.65,-190.29 133.65,-184.29 139.65,-184.29 139.65,-184.29 174.65,-184.29 174.65,-184.29 180.65,-184.29 186.65,-190.29 186.65,-196.29 186.65,-196.29 186.65,-225.29 186.65,-225.29 186.65,-231.29 180.65,-237.29 174.65,-237.29"/>
<text text-anchor="middle" x="157.15" y="-226.89" font-family="Times,serif" font-size="8.00">Region A</text>
<text text-anchor="middle" x="157.15" y="-217.89" font-family="Times,serif" font-size="8.00">upper mantle</text>
<text text-anchor="middle" x="157.15" y="-208.89" font-family="Times,serif" font-size="8.00">viscosity</text>
<text text-anchor="middle" x="157.15" y="-199.89" font-family="Times,serif" font-size="8.00">~</text>
<text text-anchor="middle" x="157.15" y="-190.89" font-family="Times,serif" font-size="8.00">Uniform</text>
</g>
<!-- Region A
upper mantle
viscosity&#45;&gt;Region A
holocene
GIA -->
<g id="edge4" class="edge">
<title>Region A
upper mantle
viscosity&#45;&gt;Region A
holocene
GIA</title>
<path fill="none" stroke="#808080" d="M174.64,-184.28C182.47,-172.41 191.76,-158.33 199.93,-145.95"/>
<polygon fill="#808080" stroke="#808080" points="201.59,-146.61 202.88,-141.47 198.67,-144.68 201.59,-146.61"/>
</g>
<!-- Region A
unexplained
noise -->
<g id="node5" class="node">
<title>Region A
unexplained
noise</title>
<path fill="#cfdde2" stroke="#cfdde2" d="M447.59,-140.43C447.59,-140.43 415.59,-140.43 415.59,-140.43 409.59,-140.43 403.59,-134.43 403.59,-128.43 403.59,-128.43 403.59,-99.43 403.59,-99.43 403.59,-93.43 409.59,-87.43 415.59,-87.43 415.59,-87.43 447.59,-87.43 447.59,-87.43 453.59,-87.43 459.59,-93.43 459.59,-99.43 459.59,-99.43 459.59,-128.43 459.59,-128.43 459.59,-134.43 453.59,-140.43 447.59,-140.43"/>
<text text-anchor="middle" x="431.59" y="-130.03" font-family="Times,serif" font-size="8.00">Region A</text>
<text text-anchor="middle" x="431.59" y="-121.03" font-family="Times,serif" font-size="8.00">unexplained</text>
<text text-anchor="middle" x="431.59" y="-112.03" font-family="Times,serif" font-size="8.00">noise</text>
<text text-anchor="middle" x="431.59" y="-103.03" font-family="Times,serif" font-size="8.00">~</text>
<text text-anchor="middle" x="431.59" y="-94.03" font-family="Times,serif" font-size="8.00">HalfCauchy</text>
</g>
<!-- Region A
holocene
likelihood -->
<g id="node10" class="node">
<title>Region A
holocene
likelihood</title>
<path fill="#b8b4ca" stroke="#b8b4ca" d="M347.02,-109.64C347.02,-109.64 317.02,-109.64 317.02,-109.64 311.02,-109.64 305.02,-103.64 305.02,-97.64 305.02,-97.64 305.02,-68.64 305.02,-68.64 305.02,-62.64 311.02,-56.64 317.02,-56.64 317.02,-56.64 347.02,-56.64 347.02,-56.64 353.02,-56.64 359.02,-62.64 359.02,-68.64 359.02,-68.64 359.02,-97.64 359.02,-97.64 359.02,-103.64 353.02,-109.64 347.02,-109.64"/>
<text text-anchor="middle" x="332.02" y="-99.24" font-family="Times,serif" font-size="8.00">Region A</text>
<text text-anchor="middle" x="332.02" y="-90.24" font-family="Times,serif" font-size="8.00">holocene</text>
<text text-anchor="middle" x="332.02" y="-81.24" font-family="Times,serif" font-size="8.00">likelihood</text>
<text text-anchor="middle" x="332.02" y="-72.24" font-family="Times,serif" font-size="8.00">~</text>
<text text-anchor="middle" x="332.02" y="-63.24" font-family="Times,serif" font-size="8.00">Normal</text>
</g>
<!-- Region A
unexplained
noise&#45;&gt;Region A
holocene
likelihood -->
<g id="edge11" class="edge">
<title>Region A
unexplained
noise&#45;&gt;Region A
holocene
likelihood</title>
<path fill="none" stroke="#808080" d="M403.59,-105.27C391.3,-101.47 376.81,-96.99 364.09,-93.05"/>
<polygon fill="#808080" stroke="#808080" points="364.42,-91.32 359.12,-91.52 363.38,-94.67 364.42,-91.32"/>
</g>
<!-- Region A
holocene sample
indicative
ranges -->
<g id="node6" class="node">
<title>Region A
holocene sample
indicative
ranges</title>
<path fill="#cfdde2" stroke="#cfdde2" d="M273.77,-334.68C273.77,-334.68 227.77,-334.68 227.77,-334.68 221.77,-334.68 215.77,-328.68 215.77,-322.68 215.77,-322.68 215.77,-284.68 215.77,-284.68 215.77,-278.68 221.77,-272.68 227.77,-272.68 227.77,-272.68 273.77,-272.68 273.77,-272.68 279.77,-272.68 285.77,-278.68 285.77,-284.68 285.77,-284.68 285.77,-322.68 285.77,-322.68 285.77,-328.68 279.77,-334.68 273.77,-334.68"/>
<text text-anchor="middle" x="250.77" y="-324.28" font-family="Times,serif" font-size="8.00">Region A</text>
<text text-anchor="middle" x="250.77" y="-315.28" font-family="Times,serif" font-size="8.00">holocene sample</text>
<text text-anchor="middle" x="250.77" y="-306.28" font-family="Times,serif" font-size="8.00">indicative</text>
<text text-anchor="middle" x="250.77" y="-297.28" font-family="Times,serif" font-size="8.00">ranges</text>
<text text-anchor="middle" x="250.77" y="-288.28" font-family="Times,serif" font-size="8.00">~</text>
<text text-anchor="middle" x="250.77" y="-279.28" font-family="Times,serif" font-size="8.00">Wald</text>
</g>
<!-- Region A
holocene
elevation
predictions -->
<g id="node8" class="node">
<title>Region A
holocene
elevation
predictions</title>
<path fill="#edbfce" stroke="#edbfce" d="M273.41,-211.68C273.41,-211.68 236.41,-211.68 236.41,-211.68 230.41,-211.68 224.41,-205.68 224.41,-199.68 224.41,-199.68 224.41,-161.68 224.41,-161.68 224.41,-155.68 230.41,-149.68 236.41,-149.68 236.41,-149.68 273.41,-149.68 273.41,-149.68 279.41,-149.68 285.41,-155.68 285.41,-161.68 285.41,-161.68 285.41,-199.68 285.41,-199.68 285.41,-205.68 279.41,-211.68 273.41,-211.68"/>
<text text-anchor="middle" x="254.91" y="-201.28" font-family="Times,serif" font-size="8.00">Region A</text>
<text text-anchor="middle" x="254.91" y="-192.28" font-family="Times,serif" font-size="8.00">holocene</text>
<text text-anchor="middle" x="254.91" y="-183.28" font-family="Times,serif" font-size="8.00">elevation</text>
<text text-anchor="middle" x="254.91" y="-174.28" font-family="Times,serif" font-size="8.00">predictions</text>
<text text-anchor="middle" x="254.91" y="-165.28" font-family="Times,serif" font-size="8.00">~</text>
<text text-anchor="middle" x="254.91" y="-156.28" font-family="Times,serif" font-size="8.00">Deterministic</text>
</g>
<!-- Region A
holocene sample
indicative
ranges&#45;&gt;Region A
holocene
elevation
predictions -->
<g id="edge7" class="edge">
<title>Region A
holocene sample
indicative
ranges&#45;&gt;Region A
holocene
elevation
predictions</title>
<path fill="none" stroke="#808080" d="M251.82,-272.64C252.39,-255.74 253.09,-234.74 253.69,-217.08"/>
<polygon fill="#808080" stroke="#808080" points="255.45,-216.77 253.87,-211.71 251.95,-216.65 255.45,-216.77"/>
</g>
<!-- Region A
lower mantle
viscosity -->
<g id="node7" class="node">
<title>Region A
lower mantle
viscosity</title>
<path fill="#cfdde2" stroke="#cfdde2" d="M153.91,-52.99C153.91,-52.99 118.91,-52.99 118.91,-52.99 112.91,-52.99 106.91,-46.99 106.91,-40.99 106.91,-40.99 106.91,-11.99 106.91,-11.99 106.91,-5.99 112.91,0.01 118.91,0.01 118.91,0.01 153.91,0.01 153.91,0.01 159.91,0.01 165.91,-5.99 165.91,-11.99 165.91,-11.99 165.91,-40.99 165.91,-40.99 165.91,-46.99 159.91,-52.99 153.91,-52.99"/>
<text text-anchor="middle" x="136.41" y="-42.59" font-family="Times,serif" font-size="8.00">Region A</text>
<text text-anchor="middle" x="136.41" y="-33.59" font-family="Times,serif" font-size="8.00">lower mantle</text>
<text text-anchor="middle" x="136.41" y="-24.59" font-family="Times,serif" font-size="8.00">viscosity</text>
<text text-anchor="middle" x="136.41" y="-15.59" font-family="Times,serif" font-size="8.00">~</text>
<text text-anchor="middle" x="136.41" y="-6.59" font-family="Times,serif" font-size="8.00">Uniform</text>
</g>
<!-- Region A
lower mantle
viscosity&#45;&gt;Region A
holocene
GIA -->
<g id="edge3" class="edge">
<title>Region A
lower mantle
viscosity&#45;&gt;Region A
holocene
GIA</title>
<path fill="none" stroke="#808080" d="M162.1,-53.44C171.4,-63.19 181.96,-74.27 191.52,-84.29"/>
<polygon fill="#808080" stroke="#808080" points="190.27,-85.53 194.99,-87.94 192.81,-83.11 190.27,-85.53"/>
</g>
<!-- Region A
holocene
elevation
predictions&#45;&gt;Region A
holocene
likelihood -->
<g id="edge10" class="edge">
<title>Region A
holocene
elevation
predictions&#45;&gt;Region A
holocene
likelihood</title>
<path fill="none" stroke="#808080" d="M279.52,-149.55C288.55,-138.13 298.76,-125.22 307.75,-113.84"/>
<polygon fill="#808080" stroke="#808080" points="309.28,-114.72 311.01,-109.72 306.54,-112.55 309.28,-114.72"/>
</g>
<!-- Region A
holocene
uplift or
subsidence&#45;&gt;Region A
holocene
elevation
predictions -->
<g id="edge8" class="edge">
<title>Region A
holocene
uplift or
subsidence&#45;&gt;Region A
holocene
elevation
predictions</title>
<path fill="none" stroke="#808080" d="M176.8,-149.47C190,-154.74 205.52,-160.95 219.24,-166.43"/>
<polygon fill="#808080" stroke="#808080" points="218.91,-168.18 224.21,-168.41 220.21,-164.93 218.91,-168.18"/>
</g>
<!-- Region A
holocene
GIA&#45;&gt;Region A
holocene
elevation
predictions -->
<g id="edge9" class="edge">
<title>Region A
holocene
GIA&#45;&gt;Region A
holocene
elevation
predictions</title>
<path fill="none" stroke="#808080" d="M234.52,-141.55C235.02,-142.51 235.52,-143.49 236.03,-144.46"/>
<polygon fill="#808080" stroke="#808080" points="234.72,-145.72 238.58,-149.35 237.82,-144.1 234.72,-145.72"/>
</g>
</g>
</svg>
