<?xml version="1.0" encoding="UTF-8" standalone="no"?>
<!DOCTYPE svg PUBLIC "-//W3C//DTD SVG 1.1//EN"
 "http://www.w3.org/Graphics/SVG/1.1/DTD/svg11.dtd">
<!-- Generated by graphviz version 2.43.0 (0)
 -->
<!-- Title: %3 Pages: 1 -->
<svg width="537pt" height="417pt"
 viewBox="0.00 0.00 537.00 417.00" xmlns="http://www.w3.org/2000/svg" xmlns:xlink="http://www.w3.org/1999/xlink">
<g id="graph0" class="graph" transform="scale(1 1) rotate(0) translate(4 413)">
<title>%3</title>
<polygon fill="white" stroke="transparent" points="-4,4 -4,-413 533,-413 533,4 -4,4"/>
<!-- T&#45;II deglacial
rate -->
<g id="node1" class="node">
<title>T&#45;II deglacial
rate</title>
<path fill="#cfdde2" stroke="#cfdde2" d="M49.13,-282.94C49.13,-282.94 12.13,-282.94 12.13,-282.94 6.13,-282.94 0.13,-276.94 0.13,-270.94 0.13,-270.94 0.13,-250.94 0.13,-250.94 0.13,-244.94 6.13,-238.94 12.13,-238.94 12.13,-238.94 49.13,-238.94 49.13,-238.94 55.13,-238.94 61.13,-244.94 61.13,-250.94 61.13,-250.94 61.13,-270.94 61.13,-270.94 61.13,-276.94 55.13,-282.94 49.13,-282.94"/>
<text text-anchor="middle" x="30.63" y="-272.54" font-family="Times,serif" font-size="8.00">T&#45;II deglacial</text>
<text text-anchor="middle" x="30.63" y="-263.54" font-family="Times,serif" font-size="8.00">rate</text>
<text text-anchor="middle" x="30.63" y="-254.54" font-family="Times,serif" font-size="8.00">~</text>
<text text-anchor="middle" x="30.63" y="-245.54" font-family="Times,serif" font-size="8.00">Uniform</text>
</g>
<!-- Region A
LIG GIA -->
<g id="node2" class="node">
<title>Region A
LIG GIA</title>
<path fill="#edbfce" stroke="#edbfce" d="M161.65,-262.76C161.65,-262.76 124.65,-262.76 124.65,-262.76 118.65,-262.76 112.65,-256.76 112.65,-250.76 112.65,-250.76 112.65,-230.76 112.65,-230.76 112.65,-224.76 118.65,-218.76 124.65,-218.76 124.65,-218.76 161.65,-218.76 161.65,-218.76 167.65,-218.76 173.65,-224.76 173.65,-230.76 173.65,-230.76 173.65,-250.76 173.65,-250.76 173.65,-256.76 167.65,-262.76 161.65,-262.76"/>
<text text-anchor="middle" x="143.15" y="-252.36" font-family="Times,serif" font-size="8.00">Region A</text>
<text text-anchor="middle" x="143.15" y="-243.36" font-family="Times,serif" font-size="8.00">LIG GIA</text>
<text text-anchor="middle" x="143.15" y="-234.36" font-family="Times,serif" font-size="8.00">~</text>
<text text-anchor="middle" x="143.15" y="-225.36" font-family="Times,serif" font-size="8.00">Deterministic</text>
</g>
<!-- T&#45;II deglacial
rate&#45;&gt;Region A
LIG GIA -->
<g id="edge1" class="edge">
<title>T&#45;II deglacial
rate&#45;&gt;Region A
LIG GIA</title>
<path fill="none" stroke="#808080" d="M61.38,-255.43C75.64,-252.87 92.68,-249.81 107.5,-247.16"/>
<polygon fill="#808080" stroke="#808080" points="107.83,-248.88 112.44,-246.27 107.21,-245.43 107.83,-248.88"/>
</g>
<!-- Region A
lig elevation
predictions -->
<g id="node12" class="node">
<title>Region A
lig elevation
predictions</title>
<path fill="#edbfce" stroke="#edbfce" d="M285.4,-292.42C285.4,-292.42 248.4,-292.42 248.4,-292.42 242.4,-292.42 236.4,-286.42 236.4,-280.42 236.4,-280.42 236.4,-251.42 236.4,-251.42 236.4,-245.42 242.4,-239.42 248.4,-239.42 248.4,-239.42 285.4,-239.42 285.4,-239.42 291.4,-239.42 297.4,-245.42 297.4,-251.42 297.4,-251.42 297.4,-280.42 297.4,-280.42 297.4,-286.42 291.4,-292.42 285.4,-292.42"/>
<text text-anchor="middle" x="266.9" y="-282.02" font-family="Times,serif" font-size="8.00">Region A</text>
<text text-anchor="middle" x="266.9" y="-273.02" font-family="Times,serif" font-size="8.00">lig elevation</text>
<text text-anchor="middle" x="266.9" y="-264.02" font-family="Times,serif" font-size="8.00">predictions</text>
<text text-anchor="middle" x="266.9" y="-255.02" font-family="Times,serif" font-size="8.00">~</text>
<text text-anchor="middle" x="266.9" y="-246.02" font-family="Times,serif" font-size="8.00">Deterministic</text>
</g>
<!-- Region A
LIG GIA&#45;&gt;Region A
lig elevation
predictions -->
<g id="edge16" class="edge">
<title>Region A
LIG GIA&#45;&gt;Region A
lig elevation
predictions</title>
<path fill="none" stroke="#808080" d="M173.74,-246.98C191.14,-250.52 213.02,-254.97 231.21,-258.66"/>
<polygon fill="#808080" stroke="#808080" points="230.98,-260.4 236.23,-259.68 231.68,-256.97 230.98,-260.4"/>
</g>
<!-- Region A
uplift or
subsidence rate -->
<g id="node3" class="node">
<title>Region A
uplift or
subsidence rate</title>
<path fill="#cfdde2" stroke="#cfdde2" d="M342.54,-52.52C342.54,-52.52 300.54,-52.52 300.54,-52.52 294.54,-52.52 288.54,-46.52 288.54,-40.52 288.54,-40.52 288.54,-11.52 288.54,-11.52 288.54,-5.52 294.54,0.48 300.54,0.48 300.54,0.48 342.54,0.48 342.54,0.48 348.54,0.48 354.54,-5.52 354.54,-11.52 354.54,-11.52 354.54,-40.52 354.54,-40.52 354.54,-46.52 348.54,-52.52 342.54,-52.52"/>
<text text-anchor="middle" x="321.54" y="-42.12" font-family="Times,serif" font-size="8.00">Region A</text>
<text text-anchor="middle" x="321.54" y="-33.12" font-family="Times,serif" font-size="8.00">uplift or</text>
<text text-anchor="middle" x="321.54" y="-24.12" font-family="Times,serif" font-size="8.00">subsidence rate</text>
<text text-anchor="middle" x="321.54" y="-15.12" font-family="Times,serif" font-size="8.00">~</text>
<text text-anchor="middle" x="321.54" y="-6.12" font-family="Times,serif" font-size="8.00">Normal</text>
</g>
<!-- Region A
LIG uplift
or subsidence -->
<g id="node4" class="node">
<title>Region A
LIG uplift
or subsidence</title>
<path fill="#edbfce" stroke="#edbfce" d="M339.8,-166.51C339.8,-166.51 302.8,-166.51 302.8,-166.51 296.8,-166.51 290.8,-160.51 290.8,-154.51 290.8,-154.51 290.8,-125.51 290.8,-125.51 290.8,-119.51 296.8,-113.51 302.8,-113.51 302.8,-113.51 339.8,-113.51 339.8,-113.51 345.8,-113.51 351.8,-119.51 351.8,-125.51 351.8,-125.51 351.8,-154.51 351.8,-154.51 351.8,-160.51 345.8,-166.51 339.8,-166.51"/>
<text text-anchor="middle" x="321.3" y="-156.11" font-family="Times,serif" font-size="8.00">Region A</text>
<text text-anchor="middle" x="321.3" y="-147.11" font-family="Times,serif" font-size="8.00">LIG uplift</text>
<text text-anchor="middle" x="321.3" y="-138.11" font-family="Times,serif" font-size="8.00">or subsidence</text>
<text text-anchor="middle" x="321.3" y="-129.11" font-family="Times,serif" font-size="8.00">~</text>
<text text-anchor="middle" x="321.3" y="-120.11" font-family="Times,serif" font-size="8.00">Deterministic</text>
</g>
<!-- Region A
uplift or
subsidence rate&#45;&gt;Region A
LIG uplift
or subsidence -->
<g id="edge2" class="edge">
<title>Region A
uplift or
subsidence rate&#45;&gt;Region A
LIG uplift
or subsidence</title>
<path fill="none" stroke="#808080" d="M321.49,-52.74C321.45,-69.32 321.41,-90.71 321.37,-108.17"/>
<polygon fill="#808080" stroke="#808080" points="319.62,-108.44 321.36,-113.45 323.12,-108.45 319.62,-108.44"/>
</g>
<!-- Region A
LIG uplift
or subsidence&#45;&gt;Region A
lig elevation
predictions -->
<g id="edge13" class="edge">
<title>Region A
LIG uplift
or subsidence&#45;&gt;Region A
lig elevation
predictions</title>
<path fill="none" stroke="#808080" d="M309.76,-166.71C301.18,-186.57 289.44,-213.74 280.42,-234.63"/>
<polygon fill="#808080" stroke="#808080" points="278.8,-233.97 278.42,-239.25 282.01,-235.36 278.8,-233.97"/>
</g>
<!-- Region A GP
cov extra
white noise -->
<g id="node5" class="node">
<title>Region A GP
cov extra
white noise</title>
<path fill="#cfdde2" stroke="#cfdde2" d="M455.48,-144.5C455.48,-144.5 421.48,-144.5 421.48,-144.5 415.48,-144.5 409.48,-138.5 409.48,-132.5 409.48,-132.5 409.48,-103.5 409.48,-103.5 409.48,-97.5 415.48,-91.5 421.48,-91.5 421.48,-91.5 455.48,-91.5 455.48,-91.5 461.48,-91.5 467.48,-97.5 467.48,-103.5 467.48,-103.5 467.48,-132.5 467.48,-132.5 467.48,-138.5 461.48,-144.5 455.48,-144.5"/>
<text text-anchor="middle" x="438.48" y="-134.1" font-family="Times,serif" font-size="8.00">Region A GP</text>
<text text-anchor="middle" x="438.48" y="-125.1" font-family="Times,serif" font-size="8.00">cov extra</text>
<text text-anchor="middle" x="438.48" y="-116.1" font-family="Times,serif" font-size="8.00">white noise</text>
<text text-anchor="middle" x="438.48" y="-107.1" font-family="Times,serif" font-size="8.00">~</text>
<text text-anchor="middle" x="438.48" y="-98.1" font-family="Times,serif" font-size="8.00">HalfCauchy</text>
</g>
<!-- Region A
LIG GIA
corrected
sea level -->
<g id="node6" class="node">
<title>Region A
LIG GIA
corrected
sea level</title>
<path fill="#cfdde2" stroke="#cfdde2" d="M400.89,-249.03C400.89,-249.03 370.89,-249.03 370.89,-249.03 364.89,-249.03 358.89,-243.03 358.89,-237.03 358.89,-237.03 358.89,-199.03 358.89,-199.03 358.89,-193.03 364.89,-187.03 370.89,-187.03 370.89,-187.03 400.89,-187.03 400.89,-187.03 406.89,-187.03 412.89,-193.03 412.89,-199.03 412.89,-199.03 412.89,-237.03 412.89,-237.03 412.89,-243.03 406.89,-249.03 400.89,-249.03"/>
<text text-anchor="middle" x="385.89" y="-238.63" font-family="Times,serif" font-size="8.00">Region A</text>
<text text-anchor="middle" x="385.89" y="-229.63" font-family="Times,serif" font-size="8.00">LIG GIA</text>
<text text-anchor="middle" x="385.89" y="-220.63" font-family="Times,serif" font-size="8.00">corrected</text>
<text text-anchor="middle" x="385.89" y="-211.63" font-family="Times,serif" font-size="8.00">sea level</text>
<text text-anchor="middle" x="385.89" y="-202.63" font-family="Times,serif" font-size="8.00">~</text>
<text text-anchor="middle" x="385.89" y="-193.63" font-family="Times,serif" font-size="8.00">MvNormal</text>
</g>
<!-- Region A GP
cov extra
white noise&#45;&gt;Region A
LIG GIA
corrected
sea level -->
<g id="edge3" class="edge">
<title>Region A GP
cov extra
white noise&#45;&gt;Region A
LIG GIA
corrected
sea level</title>
<path fill="none" stroke="#808080" d="M424.52,-144.54C418.45,-156.09 411.25,-169.8 404.71,-182.23"/>
<polygon fill="#808080" stroke="#808080" points="403.12,-181.5 402.34,-186.74 406.21,-183.13 403.12,-181.5"/>
</g>
<!-- Region A
LIG GIA
corrected
sea level&#45;&gt;Region A
lig elevation
predictions -->
<g id="edge18" class="edge">
<title>Region A
LIG GIA
corrected
sea level&#45;&gt;Region A
lig elevation
predictions</title>
<path fill="none" stroke="#808080" d="M358.59,-229.02C341.91,-235.73 320.39,-244.39 302.4,-251.63"/>
<polygon fill="#808080" stroke="#808080" points="301.41,-250.14 297.42,-253.63 302.71,-253.39 301.41,-250.14"/>
</g>
<!-- Region A
lithosphere -->
<g id="node7" class="node">
<title>Region A
lithosphere</title>
<path fill="#cfdde2" stroke="#cfdde2" d="M108.65,-165.69C108.65,-165.69 78.65,-165.69 78.65,-165.69 72.65,-165.69 66.65,-159.69 66.65,-153.69 66.65,-153.69 66.65,-133.69 66.65,-133.69 66.65,-127.69 72.65,-121.69 78.65,-121.69 78.65,-121.69 108.65,-121.69 108.65,-121.69 114.65,-121.69 120.65,-127.69 120.65,-133.69 120.65,-133.69 120.65,-153.69 120.65,-153.69 120.65,-159.69 114.65,-165.69 108.65,-165.69"/>
<text text-anchor="middle" x="93.65" y="-155.29" font-family="Times,serif" font-size="8.00">Region A</text>
<text text-anchor="middle" x="93.65" y="-146.29" font-family="Times,serif" font-size="8.00">lithosphere</text>
<text text-anchor="middle" x="93.65" y="-137.29" font-family="Times,serif" font-size="8.00">~</text>
<text text-anchor="middle" x="93.65" y="-128.29" font-family="Times,serif" font-size="8.00">Uniform</text>
</g>
<!-- Region A
lithosphere&#45;&gt;Region A
LIG GIA -->
<g id="edge4" class="edge">
<title>Region A
lithosphere&#45;&gt;Region A
LIG GIA</title>
<path fill="none" stroke="#808080" d="M104.89,-165.72C112.17,-180.01 121.72,-198.74 129.45,-213.9"/>
<polygon fill="#808080" stroke="#808080" points="127.96,-214.83 131.79,-218.49 131.08,-213.24 127.96,-214.83"/>
</g>
<!-- Region A
upper mantle
viscosity -->
<g id="node8" class="node">
<title>Region A
upper mantle
viscosity</title>
<path fill="#cfdde2" stroke="#cfdde2" d="M169.36,-372.34C169.36,-372.34 134.36,-372.34 134.36,-372.34 128.36,-372.34 122.36,-366.34 122.36,-360.34 122.36,-360.34 122.36,-331.34 122.36,-331.34 122.36,-325.34 128.36,-319.34 134.36,-319.34 134.36,-319.34 169.36,-319.34 169.36,-319.34 175.36,-319.34 181.36,-325.34 181.36,-331.34 181.36,-331.34 181.36,-360.34 181.36,-360.34 181.36,-366.34 175.36,-372.34 169.36,-372.34"/>
<text text-anchor="middle" x="151.86" y="-361.94" font-family="Times,serif" font-size="8.00">Region A</text>
<text text-anchor="middle" x="151.86" y="-352.94" font-family="Times,serif" font-size="8.00">upper mantle</text>
<text text-anchor="middle" x="151.86" y="-343.94" font-family="Times,serif" font-size="8.00">viscosity</text>
<text text-anchor="middle" x="151.86" y="-334.94" font-family="Times,serif" font-size="8.00">~</text>
<text text-anchor="middle" x="151.86" y="-325.94" font-family="Times,serif" font-size="8.00">Uniform</text>
</g>
<!-- Region A
upper mantle
viscosity&#45;&gt;Region A
LIG GIA -->
<g id="edge5" class="edge">
<title>Region A
upper mantle
viscosity&#45;&gt;Region A
LIG GIA</title>
<path fill="none" stroke="#808080" d="M149.66,-319.32C148.36,-303.7 146.73,-283.97 145.42,-268.19"/>
<polygon fill="#808080" stroke="#808080" points="147.15,-267.84 144.99,-263.01 143.66,-268.13 147.15,-267.84"/>
</g>
<!-- ice
history -->
<g id="node9" class="node">
<title>ice
history</title>
<path fill="#cfdde2" stroke="#cfdde2" d="M55.17,-220.18C55.17,-220.18 25.17,-220.18 25.17,-220.18 19.17,-220.18 13.17,-214.18 13.17,-208.18 13.17,-208.18 13.17,-188.18 13.17,-188.18 13.17,-182.18 19.17,-176.18 25.17,-176.18 25.17,-176.18 55.17,-176.18 55.17,-176.18 61.17,-176.18 67.17,-182.18 67.17,-188.18 67.17,-188.18 67.17,-208.18 67.17,-208.18 67.17,-214.18 61.17,-220.18 55.17,-220.18"/>
<text text-anchor="middle" x="40.17" y="-209.78" font-family="Times,serif" font-size="8.00">ice</text>
<text text-anchor="middle" x="40.17" y="-200.78" font-family="Times,serif" font-size="8.00">history</text>
<text text-anchor="middle" x="40.17" y="-191.78" font-family="Times,serif" font-size="8.00">~</text>
<text text-anchor="middle" x="40.17" y="-182.78" font-family="Times,serif" font-size="8.00">Uniform</text>
</g>
<!-- ice
history&#45;&gt;Region A
LIG GIA -->
<g id="edge6" class="edge">
<title>ice
history&#45;&gt;Region A
LIG GIA</title>
<path fill="none" stroke="#808080" d="M67.22,-209.37C79.64,-214.5 94.53,-220.66 107.82,-226.15"/>
<polygon fill="#808080" stroke="#808080" points="107.35,-227.85 112.64,-228.15 108.69,-224.62 107.35,-227.85"/>
</g>
<!-- Region A GP
mean -->
<g id="node10" class="node">
<title>Region A GP
mean</title>
<path fill="#cfdde2" stroke="#cfdde2" d="M503.66,-199.3C503.66,-199.3 469.66,-199.3 469.66,-199.3 463.66,-199.3 457.66,-193.3 457.66,-187.3 457.66,-187.3 457.66,-167.3 457.66,-167.3 457.66,-161.3 463.66,-155.3 469.66,-155.3 469.66,-155.3 503.66,-155.3 503.66,-155.3 509.66,-155.3 515.66,-161.3 515.66,-167.3 515.66,-167.3 515.66,-187.3 515.66,-187.3 515.66,-193.3 509.66,-199.3 503.66,-199.3"/>
<text text-anchor="middle" x="486.66" y="-188.9" font-family="Times,serif" font-size="8.00">Region A GP</text>
<text text-anchor="middle" x="486.66" y="-179.9" font-family="Times,serif" font-size="8.00">mean</text>
<text text-anchor="middle" x="486.66" y="-170.9" font-family="Times,serif" font-size="8.00">~</text>
<text text-anchor="middle" x="486.66" y="-161.9" font-family="Times,serif" font-size="8.00">Normal</text>
</g>
<!-- Region A GP
mean&#45;&gt;Region A
LIG GIA
corrected
sea level -->
<g id="edge7" class="edge">
<title>Region A GP
mean&#45;&gt;Region A
LIG GIA
corrected
sea level</title>
<path fill="none" stroke="#808080" d="M457.52,-189.08C445.1,-194.1 430.57,-199.97 417.86,-205.11"/>
<polygon fill="#808080" stroke="#808080" points="416.88,-203.62 412.9,-207.11 418.19,-206.86 416.88,-203.62"/>
</g>
<!-- Region A
LIG sample
indicative
ranges -->
<g id="node11" class="node">
<title>Region A
LIG sample
indicative
ranges</title>
<path fill="#cfdde2" stroke="#cfdde2" d="M266.88,-408.62C266.88,-408.62 234.88,-408.62 234.88,-408.62 228.88,-408.62 222.88,-402.62 222.88,-396.62 222.88,-396.62 222.88,-358.62 222.88,-358.62 222.88,-352.62 228.88,-346.62 234.88,-346.62 234.88,-346.62 266.88,-346.62 266.88,-346.62 272.88,-346.62 278.88,-352.62 278.88,-358.62 278.88,-358.62 278.88,-396.62 278.88,-396.62 278.88,-402.62 272.88,-408.62 266.88,-408.62"/>
<text text-anchor="middle" x="250.88" y="-398.22" font-family="Times,serif" font-size="8.00">Region A</text>
<text text-anchor="middle" x="250.88" y="-389.22" font-family="Times,serif" font-size="8.00">LIG sample</text>
<text text-anchor="middle" x="250.88" y="-380.22" font-family="Times,serif" font-size="8.00">indicative</text>
<text text-anchor="middle" x="250.88" y="-371.22" font-family="Times,serif" font-size="8.00">ranges</text>
<text text-anchor="middle" x="250.88" y="-362.22" font-family="Times,serif" font-size="8.00">~</text>
<text text-anchor="middle" x="250.88" y="-353.22" font-family="Times,serif" font-size="8.00">Normal</text>
</g>
<!-- Region A
LIG sample
indicative
ranges&#45;&gt;Region A
lig elevation
predictions -->
<g id="edge8" class="edge">
<title>Region A
LIG sample
indicative
ranges&#45;&gt;Region A
lig elevation
predictions</title>
<path fill="none" stroke="#808080" d="M255.34,-346.51C257.52,-331.31 260.14,-313.05 262.33,-297.76"/>
<polygon fill="#808080" stroke="#808080" points="264.08,-297.89 263.06,-292.7 260.62,-297.4 264.08,-297.89"/>
</g>
<!-- Region A
LIG likelihood -->
<g id="node15" class="node">
<title>Region A
LIG likelihood</title>
<path fill="#b8b4ca" stroke="#b8b4ca" d="M343.04,-384.04C343.04,-384.04 302.04,-384.04 302.04,-384.04 296.04,-384.04 290.04,-378.04 290.04,-372.04 290.04,-372.04 290.04,-352.04 290.04,-352.04 290.04,-346.04 296.04,-340.04 302.04,-340.04 302.04,-340.04 343.04,-340.04 343.04,-340.04 349.04,-340.04 355.04,-346.04 355.04,-352.04 355.04,-352.04 355.04,-372.04 355.04,-372.04 355.04,-378.04 349.04,-384.04 343.04,-384.04"/>
<text text-anchor="middle" x="322.54" y="-373.64" font-family="Times,serif" font-size="8.00">Region A</text>
<text text-anchor="middle" x="322.54" y="-364.64" font-family="Times,serif" font-size="8.00">LIG likelihood</text>
<text text-anchor="middle" x="322.54" y="-355.64" font-family="Times,serif" font-size="8.00">~</text>
<text text-anchor="middle" x="322.54" y="-346.64" font-family="Times,serif" font-size="8.00">Normal</text>
</g>
<!-- Region A
lig elevation
predictions&#45;&gt;Region A
LIG likelihood -->
<g id="edge14" class="edge">
<title>Region A
lig elevation
predictions&#45;&gt;Region A
LIG likelihood</title>
<path fill="none" stroke="#808080" d="M282.25,-292.44C290,-305.82 299.37,-322.01 307.12,-335.4"/>
<polygon fill="#808080" stroke="#808080" points="305.67,-336.38 309.69,-339.83 308.7,-334.63 305.67,-336.38"/>
</g>
<!-- Region A
lower mantle
viscosity -->
<g id="node13" class="node">
<title>Region A
lower mantle
viscosity</title>
<path fill="#cfdde2" stroke="#cfdde2" d="M80.85,-349.24C80.85,-349.24 45.85,-349.24 45.85,-349.24 39.85,-349.24 33.85,-343.24 33.85,-337.24 33.85,-337.24 33.85,-308.24 33.85,-308.24 33.85,-302.24 39.85,-296.24 45.85,-296.24 45.85,-296.24 80.85,-296.24 80.85,-296.24 86.85,-296.24 92.85,-302.24 92.85,-308.24 92.85,-308.24 92.85,-337.24 92.85,-337.24 92.85,-343.24 86.85,-349.24 80.85,-349.24"/>
<text text-anchor="middle" x="63.35" y="-338.84" font-family="Times,serif" font-size="8.00">Region A</text>
<text text-anchor="middle" x="63.35" y="-329.84" font-family="Times,serif" font-size="8.00">lower mantle</text>
<text text-anchor="middle" x="63.35" y="-320.84" font-family="Times,serif" font-size="8.00">viscosity</text>
<text text-anchor="middle" x="63.35" y="-311.84" font-family="Times,serif" font-size="8.00">~</text>
<text text-anchor="middle" x="63.35" y="-302.84" font-family="Times,serif" font-size="8.00">Uniform</text>
</g>
<!-- Region A
lower mantle
viscosity&#45;&gt;Region A
LIG GIA -->
<g id="edge9" class="edge">
<title>Region A
lower mantle
viscosity&#45;&gt;Region A
LIG GIA</title>
<path fill="none" stroke="#808080" d="M89.48,-295.9C98.55,-286.58 108.7,-276.16 117.71,-266.9"/>
<polygon fill="#808080" stroke="#808080" points="119.26,-267.81 121.49,-263.01 116.75,-265.37 119.26,-267.81"/>
</g>
<!-- Region A
LIG sample
ages -->
<g id="node14" class="node">
<title>Region A
LIG sample
ages</title>
<path fill="#cfdde2" stroke="#cfdde2" d="M271.87,-227.53C271.87,-227.53 222.87,-227.53 222.87,-227.53 216.87,-227.53 210.87,-221.53 210.87,-215.53 210.87,-215.53 210.87,-186.53 210.87,-186.53 210.87,-180.53 216.87,-174.53 222.87,-174.53 222.87,-174.53 271.87,-174.53 271.87,-174.53 277.87,-174.53 283.87,-180.53 283.87,-186.53 283.87,-186.53 283.87,-215.53 283.87,-215.53 283.87,-221.53 277.87,-227.53 271.87,-227.53"/>
<text text-anchor="middle" x="247.37" y="-217.13" font-family="Times,serif" font-size="8.00">Region A</text>
<text text-anchor="middle" x="247.37" y="-208.13" font-family="Times,serif" font-size="8.00">LIG sample</text>
<text text-anchor="middle" x="247.37" y="-199.13" font-family="Times,serif" font-size="8.00">ages</text>
<text text-anchor="middle" x="247.37" y="-190.13" font-family="Times,serif" font-size="8.00">~</text>
<text text-anchor="middle" x="247.37" y="-181.13" font-family="Times,serif" font-size="8.00">TruncatedNormal</text>
</g>
<!-- Region A
LIG sample
ages&#45;&gt;Region A
LIG GIA -->
<g id="edge11" class="edge">
<title>Region A
LIG sample
ages&#45;&gt;Region A
LIG GIA</title>
<path fill="none" stroke="#808080" d="M210.63,-215.04C200.16,-219.03 188.78,-223.37 178.4,-227.32"/>
<polygon fill="#808080" stroke="#808080" points="177.76,-225.7 173.71,-229.11 179,-228.97 177.76,-225.7"/>
</g>
<!-- Region A
LIG sample
ages&#45;&gt;Region A
LIG uplift
or subsidence -->
<g id="edge10" class="edge">
<title>Region A
LIG sample
ages&#45;&gt;Region A
LIG uplift
or subsidence</title>
<path fill="none" stroke="#808080" d="M279.58,-174.44C281.82,-172.59 284.08,-170.73 286.33,-168.87"/>
<polygon fill="#808080" stroke="#808080" points="287.62,-170.07 290.37,-165.54 285.4,-167.37 287.62,-170.07"/>
</g>
<!-- Region A
LIG sample
ages&#45;&gt;Region A
LIG GIA
corrected
sea level -->
<g id="edge12" class="edge">
<title>Region A
LIG sample
ages&#45;&gt;Region A
LIG GIA
corrected
sea level</title>
<path fill="none" stroke="#808080" d="M284.13,-205.54C305.7,-208.19 332.72,-211.5 353.49,-214.05"/>
<polygon fill="#808080" stroke="#808080" points="353.46,-215.81 358.63,-214.69 353.88,-212.34 353.46,-215.81"/>
</g>
<!-- Region A GP
cov lengthscale -->
<g id="node16" class="node">
<title>Region A GP
cov lengthscale</title>
<path fill="#cfdde2" stroke="#cfdde2" d="M517.31,-262.48C517.31,-262.48 475.31,-262.48 475.31,-262.48 469.31,-262.48 463.31,-256.48 463.31,-250.48 463.31,-250.48 463.31,-230.48 463.31,-230.48 463.31,-224.48 469.31,-218.48 475.31,-218.48 475.31,-218.48 517.31,-218.48 517.31,-218.48 523.31,-218.48 529.31,-224.48 529.31,-230.48 529.31,-230.48 529.31,-250.48 529.31,-250.48 529.31,-256.48 523.31,-262.48 517.31,-262.48"/>
<text text-anchor="middle" x="496.31" y="-252.08" font-family="Times,serif" font-size="8.00">Region A GP</text>
<text text-anchor="middle" x="496.31" y="-243.08" font-family="Times,serif" font-size="8.00">cov lengthscale</text>
<text text-anchor="middle" x="496.31" y="-234.08" font-family="Times,serif" font-size="8.00">~</text>
<text text-anchor="middle" x="496.31" y="-225.08" font-family="Times,serif" font-size="8.00">Wald</text>
</g>
<!-- Region A GP
cov lengthscale&#45;&gt;Region A
LIG GIA
corrected
sea level -->
<g id="edge15" class="edge">
<title>Region A GP
cov lengthscale&#45;&gt;Region A
LIG GIA
corrected
sea level</title>
<path fill="none" stroke="#808080" d="M463.18,-233.75C448.92,-230.85 432.31,-227.47 418.15,-224.59"/>
<polygon fill="#808080" stroke="#808080" points="418.3,-222.84 413.05,-223.55 417.6,-226.27 418.3,-222.84"/>
</g>
<!-- Region A GP
cov variance -->
<g id="node17" class="node">
<title>Region A GP
cov variance</title>
<path fill="#cfdde2" stroke="#cfdde2" d="M476.39,-321.06C476.39,-321.06 442.39,-321.06 442.39,-321.06 436.39,-321.06 430.39,-315.06 430.39,-309.06 430.39,-309.06 430.39,-289.06 430.39,-289.06 430.39,-283.06 436.39,-277.06 442.39,-277.06 442.39,-277.06 476.39,-277.06 476.39,-277.06 482.39,-277.06 488.39,-283.06 488.39,-289.06 488.39,-289.06 488.39,-309.06 488.39,-309.06 488.39,-315.06 482.39,-321.06 476.39,-321.06"/>
<text text-anchor="middle" x="459.39" y="-310.66" font-family="Times,serif" font-size="8.00">Region A GP</text>
<text text-anchor="middle" x="459.39" y="-301.66" font-family="Times,serif" font-size="8.00">cov variance</text>
<text text-anchor="middle" x="459.39" y="-292.66" font-family="Times,serif" font-size="8.00">~</text>
<text text-anchor="middle" x="459.39" y="-283.66" font-family="Times,serif" font-size="8.00">Normal</text>
</g>
<!-- Region A GP
cov variance&#45;&gt;Region A
LIG GIA
corrected
sea level -->
<g id="edge17" class="edge">
<title>Region A GP
cov variance&#45;&gt;Region A
LIG GIA
corrected
sea level</title>
<path fill="none" stroke="#808080" d="M439.3,-276.92C432.36,-269.27 424.42,-260.51 416.81,-252.12"/>
<polygon fill="#808080" stroke="#808080" points="417.77,-250.57 413.11,-248.05 415.17,-252.93 417.77,-250.57"/>
</g>
</g>
</svg>
